# Blender v2.80 (sub 75) OBJ File: 'fields.blend'
# www.blender.org
mtllib fields.mtl
o path4469
v -3.955626 0.013722 -0.552043
v -4.436872 0.013722 -0.379184
v -4.723419 0.013722 -1.176135
v -4.242145 0.013722 -1.348994
vn 0.0000 1.0000 -0.0000
usemtl SVGMat.009
s off
f 3//1 1//1 4//1
f 2//1 1//1 3//1
o path4471
v -1.701877 0.013722 0.445584
v -2.674831 0.013722 0.445584
v -2.674831 0.013722 -0.186933
v -1.701877 0.013722 -0.186933
vn 0.0000 1.0000 0.0000
usemtl SVGMat.010
s off
f 6//2 8//2 7//2
f 6//2 5//2 8//2
o path4475
v -3.974660 0.013722 0.481942
v -3.070562 0.013722 0.481942
v -3.070562 0.013722 -0.154476
v -3.974660 0.013722 -0.154476
vn 0.0000 1.0000 0.0000
usemtl SVGMat.012
s off
f 9//3 11//3 12//3
f 9//3 10//3 11//3
o path4477
v -4.070241 0.013722 0.567919
v -4.423866 0.013722 0.567919
v -4.423866 0.013722 -0.045569
v -4.070241 0.013722 -0.045569
vn 0.0000 1.0000 0.0000
usemtl SVGMat.013
s off
f 14//4 16//4 15//4
f 14//4 13//4 16//4
o path4481
v -4.207582 0.013722 1.252319
v -4.776040 0.013722 1.502759
v -4.910562 0.013722 1.197498
v -4.342161 0.013722 0.947087
vn 0.0000 1.0000 0.0000
usemtl SVGMat.014
s off
f 19//5 17//5 20//5
f 18//5 17//5 19//5
o path4485
v -4.638642 0.013722 1.054806
v -4.918912 0.013722 1.178301
v -5.053462 0.013722 0.873041
v -4.773220 0.013722 0.749574
vn 0.0000 1.0000 0.0000
usemtl SVGMat.015
s off
f 23//6 21//6 24//6
f 22//6 21//6 23//6
o path4487
v -0.978423 0.013722 -1.763134
v -1.639777 0.013722 -1.763134
v -1.639777 0.013722 -2.639361
v -0.978423 0.013722 -2.639361
vn 0.0000 1.0000 0.0000
usemtl SVGMat.016
s off
f 26//7 28//7 27//7
f 26//7 25//7 28//7
o path4491
v -1.305287 0.013722 -3.001957
v -1.362274 0.013722 -2.997815
v -1.416993 0.013722 -2.985759
v -1.468932 0.013722 -2.966335
v -1.517579 0.013722 -2.940094
v -1.562421 0.013722 -2.907581
v -1.602945 0.013722 -2.869349
v -1.638640 0.013722 -2.825943
v -1.668995 0.013722 -2.777914
v -1.693496 0.013722 -2.725809
v -1.711630 0.013722 -2.670177
v -1.722887 0.013722 -2.611567
v -1.726752 0.013722 -2.550527
v -1.726752 0.013722 -2.537100
v -1.726752 0.013722 -2.499979
v -1.726752 0.013722 -2.443903
v -1.726752 0.013722 -2.373610
v -1.726752 0.013722 -2.293840
v -1.726752 0.013722 -2.209332
v -1.726752 0.013722 -2.124824
v -1.726752 0.013722 -2.045053
v -1.726752 0.013722 -1.974761
v -1.726752 0.013722 -1.918685
v -1.726752 0.013722 -1.881564
v -1.726752 0.013722 -1.868137
v -1.722887 0.013722 -1.807090
v -1.711630 0.013722 -1.748474
v -1.693496 0.013722 -1.692838
v -1.668995 0.013722 -1.640729
v -1.638640 0.013722 -1.592697
v -1.602945 0.013722 -1.549289
v -1.562421 0.013722 -1.511055
v -1.517579 0.013722 -1.478542
v -1.468932 0.013722 -1.452300
v -1.416993 0.013722 -1.432877
v -1.362274 0.013722 -1.420820
v -1.305287 0.013722 -1.416679
v -1.248301 0.013722 -1.420820
v -1.193581 0.013722 -1.432876
v -1.141639 0.013722 -1.452300
v -1.092989 0.013722 -1.478541
v -1.048144 0.013722 -1.511054
v -1.007616 0.013722 -1.549289
v -0.971917 0.013722 -1.592696
v -0.941559 0.013722 -1.640729
v -0.917055 0.013722 -1.692837
v -0.898918 0.013722 -1.748474
v -0.887661 0.013722 -1.807090
v -0.883794 0.013722 -1.868137
v -0.883794 0.013722 -1.881564
v -0.883794 0.013722 -1.918685
v -0.883794 0.013722 -1.974761
v -0.883794 0.013722 -2.045053
v -0.883794 0.013722 -2.124824
v -0.883794 0.013722 -2.209332
v -0.883794 0.013722 -2.293840
v -0.883794 0.013722 -2.373610
v -0.883794 0.013722 -2.443903
v -0.883794 0.013722 -2.499979
v -0.883794 0.013722 -2.537100
v -0.883794 0.013722 -2.550527
v -0.887661 0.013722 -2.611567
v -0.898918 0.013722 -2.670177
v -0.917055 0.013722 -2.725810
v -0.941559 0.013722 -2.777915
v -0.971917 0.013722 -2.825945
v -1.007616 0.013722 -2.869350
v -1.048144 0.013722 -2.907583
v -1.092989 0.013722 -2.940095
v -1.141639 0.013722 -2.966337
v -1.193581 0.013722 -2.985760
v -1.248301 0.013722 -2.997817
v -1.305287 0.013722 -2.938257
v -1.256808 0.013722 -2.934711
v -1.210291 0.013722 -2.924384
v -1.166165 0.013722 -2.907741
v -1.124861 0.013722 -2.885246
v -1.086807 0.013722 -2.857367
v -1.052435 0.013722 -2.824567
v -1.022172 0.013722 -2.787313
v -0.996448 0.013722 -2.746071
v -0.975693 0.013722 -2.701306
v -0.960337 0.013722 -2.653483
v -0.950808 0.013722 -2.603068
v -0.947535 0.013722 -2.550527
v -0.947535 0.013722 -2.537100
v -0.947535 0.013722 -2.499979
v -0.947535 0.013722 -2.443903
v -0.947535 0.013722 -2.373610
v -0.947535 0.013722 -2.293840
v -0.947535 0.013722 -2.209332
v -0.947535 0.013722 -2.124824
v -0.947535 0.013722 -2.045053
v -0.947535 0.013722 -1.974761
v -0.947535 0.013722 -1.918685
v -0.947535 0.013722 -1.881564
v -0.947535 0.013722 -1.868137
v -0.950806 0.013722 -1.815589
v -0.960335 0.013722 -1.765169
v -0.975691 0.013722 -1.717342
v -0.996446 0.013722 -1.672573
v -1.022170 0.013722 -1.631329
v -1.052433 0.013722 -1.594072
v -1.086805 0.013722 -1.561272
v -1.124859 0.013722 -1.533391
v -1.166163 0.013722 -1.510896
v -1.210289 0.013722 -1.494252
v -1.256806 0.013722 -1.483924
v -1.305287 0.013722 -1.480377
v -1.353767 0.013722 -1.483924
v -1.400283 0.013722 -1.494252
v -1.444407 0.013722 -1.510896
v -1.485707 0.013722 -1.533391
v -1.523757 0.013722 -1.561272
v -1.558126 0.013722 -1.594072
v -1.588386 0.013722 -1.631329
v -1.614107 0.013722 -1.672573
v -1.634858 0.013722 -1.717342
v -1.650213 0.013722 -1.765169
v -1.659740 0.013722 -1.815589
v -1.663013 0.013722 -1.868137
v -1.663013 0.013722 -1.881564
v -1.663013 0.013722 -1.918685
v -1.663013 0.013722 -1.974761
v -1.663013 0.013722 -2.045053
v -1.663013 0.013722 -2.124824
v -1.663013 0.013722 -2.209332
v -1.663013 0.013722 -2.293840
v -1.663013 0.013722 -2.373610
v -1.663013 0.013722 -2.443903
v -1.663013 0.013722 -2.499979
v -1.663013 0.013722 -2.537100
v -1.663013 0.013722 -2.550527
v -1.659741 0.013722 -2.603068
v -1.650214 0.013722 -2.653483
v -1.634859 0.013722 -2.701306
v -1.614107 0.013722 -2.746071
v -1.588387 0.013722 -2.787313
v -1.558127 0.013722 -2.824567
v -1.523758 0.013722 -2.857367
v -1.485708 0.013722 -2.885246
v -1.444407 0.013722 -2.907741
v -1.400284 0.013722 -2.924384
v -1.353767 0.013722 -2.934711
vn 0.0000 1.0000 0.0000
usemtl SVGMat.017
s off
f 30//8 100//8 29//8
f 30//8 99//8 100//8
f 31//8 99//8 30//8
f 31//8 98//8 99//8
f 32//8 98//8 31//8
f 32//8 97//8 98//8
f 33//8 97//8 32//8
f 33//8 101//8 97//8
f 101//8 102//8 97//8
f 102//8 96//8 97//8
f 34//8 172//8 33//8
f 172//8 101//8 33//8
f 34//8 171//8 172//8
f 103//8 96//8 102//8
f 34//8 170//8 171//8
f 104//8 96//8 103//8
f 34//8 169//8 170//8
f 105//8 96//8 104//8
f 105//8 95//8 96//8
f 35//8 169//8 34//8
f 35//8 168//8 169//8
f 106//8 95//8 105//8
f 106//8 94//8 95//8
f 36//8 168//8 35//8
f 36//8 167//8 168//8
f 107//8 94//8 106//8
f 107//8 93//8 94//8
f 37//8 167//8 36//8
f 37//8 166//8 167//8
f 108//8 93//8 107//8
f 37//8 165//8 166//8
f 109//8 93//8 108//8
f 109//8 92//8 93//8
f 38//8 165//8 37//8
f 38//8 164//8 165//8
f 110//8 92//8 109//8
f 110//8 91//8 92//8
f 39//8 164//8 38//8
f 39//8 163//8 164//8
f 111//8 91//8 110//8
f 111//8 90//8 91//8
f 40//8 163//8 39//8
f 40//8 162//8 163//8
f 112//8 90//8 111//8
f 112//8 89//8 90//8
f 41//8 162//8 40//8
f 41//8 161//8 162//8
f 113//8 89//8 112//8
f 42//8 161//8 41//8
f 42//8 160//8 161//8
f 114//8 89//8 113//8
f 114//8 88//8 89//8
f 43//8 160//8 42//8
f 43//8 159//8 160//8
f 115//8 88//8 114//8
f 115//8 87//8 88//8
f 44//8 159//8 43//8
f 44//8 158//8 159//8
f 116//8 87//8 115//8
f 116//8 86//8 87//8
f 45//8 158//8 44//8
f 45//8 157//8 158//8
f 117//8 86//8 116//8
f 117//8 85//8 86//8
f 46//8 157//8 45//8
f 46//8 156//8 157//8
f 118//8 85//8 117//8
f 118//8 84//8 85//8
f 47//8 156//8 46//8
f 47//8 155//8 156//8
f 119//8 84//8 118//8
f 119//8 83//8 84//8
f 48//8 155//8 47//8
f 48//8 154//8 155//8
f 120//8 83//8 119//8
f 120//8 82//8 83//8
f 49//8 154//8 48//8
f 49//8 153//8 154//8
f 121//8 82//8 120//8
f 121//8 81//8 82//8
f 50//8 153//8 49//8
f 50//8 152//8 153//8
f 122//8 81//8 121//8
f 122//8 80//8 81//8
f 51//8 152//8 50//8
f 51//8 151//8 152//8
f 123//8 80//8 122//8
f 123//8 79//8 80//8
f 52//8 151//8 51//8
f 52//8 150//8 151//8
f 124//8 79//8 123//8
f 124//8 78//8 79//8
f 53//8 150//8 52//8
f 53//8 149//8 150//8
f 125//8 78//8 124//8
f 125//8 77//8 78//8
f 54//8 149//8 53//8
f 54//8 148//8 149//8
f 126//8 77//8 125//8
f 126//8 76//8 77//8
f 54//8 147//8 148//8
f 127//8 76//8 126//8
f 55//8 147//8 54//8
f 127//8 75//8 76//8
f 55//8 146//8 147//8
f 128//8 75//8 127//8
f 56//8 146//8 55//8
f 128//8 74//8 75//8
f 56//8 145//8 146//8
f 129//8 74//8 128//8
f 57//8 145//8 56//8
f 129//8 73//8 74//8
f 57//8 144//8 145//8
f 130//8 73//8 129//8
f 58//8 144//8 57//8
f 130//8 72//8 73//8
f 58//8 143//8 144//8
f 131//8 72//8 130//8
f 58//8 142//8 143//8
f 132//8 72//8 131//8
f 59//8 142//8 58//8
f 132//8 71//8 72//8
f 59//8 141//8 142//8
f 133//8 71//8 132//8
f 60//8 141//8 59//8
f 133//8 70//8 71//8
f 60//8 140//8 141//8
f 134//8 70//8 133//8
f 61//8 140//8 60//8
f 134//8 69//8 70//8
f 61//8 139//8 140//8
f 135//8 69//8 134//8
f 61//8 138//8 139//8
f 136//8 69//8 135//8
f 61//8 137//8 138//8
f 137//8 69//8 136//8
f 61//8 69//8 137//8
f 62//8 69//8 61//8
f 62//8 68//8 69//8
f 63//8 68//8 62//8
f 63//8 67//8 68//8
f 64//8 67//8 63//8
f 64//8 66//8 67//8
f 65//8 66//8 64//8
o path4493
v -1.659798 0.013722 -1.511338
v -1.749667 0.013722 -1.511338
v -1.749667 0.013722 -2.894918
v -1.659798 0.013722 -2.894918
vn 0.0000 1.0000 0.0000
usemtl SVGMat.018
s off
f 174//9 176//9 175//9
f 174//9 173//9 176//9
o path4495
v -0.948250 0.013722 -1.845747
v -0.883803 0.013722 -1.845747
v -0.883803 0.013722 -1.610688
v -0.948250 0.013722 -1.610688
vn 0.0000 1.0000 0.0000
usemtl SVGMat.019
s off
f 180//10 178//10 177//10
f 180//10 179//10 178//10
o path4499
v -3.571259 0.013722 -3.798318
v -4.315299 0.013722 -3.843554
v -4.250031 0.013722 -4.917492
v -3.505963 0.013722 -4.872256
vn 0.0000 1.0000 0.0000
usemtl SVGMat.020
s off
f 182//11 184//11 183//11
f 182//11 181//11 184//11
o path4503
v -2.695939 0.013722 -3.260933
v -2.696476 0.013722 -3.261471
v -2.696165 0.013722 -3.263500
v -2.695858 0.013722 -3.265532
v -2.695558 0.013722 -3.267570
v -2.695271 0.013722 -3.269610
v -2.695000 0.013722 -3.271658
v -2.694751 0.013722 -3.273711
v -2.694528 0.013722 -3.275771
v -2.694335 0.013722 -3.277841
v -2.694177 0.013722 -3.279918
v -2.694058 0.013722 -3.282004
v -2.693985 0.013722 -3.284101
v -2.693959 0.013722 -3.286209
v -2.695456 0.013722 -3.308451
v -2.699816 0.013722 -3.329782
v -2.706843 0.013722 -3.350009
v -2.716343 0.013722 -3.368936
v -2.728119 0.013722 -3.386366
v -2.741976 0.013722 -3.402105
v -2.757718 0.013722 -3.415958
v -2.775150 0.013722 -3.427731
v -2.794076 0.013722 -3.437227
v -2.814301 0.013722 -3.444251
v -2.835628 0.013722 -3.448608
v -2.857862 0.013722 -3.450106
v -2.860166 0.013722 -3.450080
v -2.862457 0.013722 -3.450006
v -2.864733 0.013722 -3.449888
v -2.866998 0.013722 -3.449728
v -2.869252 0.013722 -3.449531
v -2.871496 0.013722 -3.449299
v -2.873731 0.013722 -3.449038
v -2.875957 0.013722 -3.448749
v -2.878178 0.013722 -3.448436
v -2.880393 0.013722 -3.448102
v -2.882604 0.013722 -3.447754
v -2.884812 0.013722 -3.447392
v -2.884821 0.013722 -3.447400
v -2.884845 0.013722 -3.447425
v -2.884882 0.013722 -3.447462
v -2.884929 0.013722 -3.447509
v -2.884982 0.013722 -3.447561
v -2.885038 0.013722 -3.447618
v -2.885094 0.013722 -3.447674
v -2.885147 0.013722 -3.447726
v -2.885193 0.013722 -3.447773
v -2.885230 0.013722 -3.447810
v -2.885254 0.013722 -3.447835
v -2.885264 0.013722 -3.447844
v -3.645593 0.013722 -3.335205
v -3.651489 0.013722 -3.318173
v -3.656939 0.013722 -3.300938
v -3.661930 0.013722 -3.283502
v -3.666450 0.013722 -3.265874
v -3.670485 0.013722 -3.248058
v -3.674024 0.013722 -3.230060
v -3.677052 0.013722 -3.211885
v -3.679559 0.013722 -3.193540
v -3.681530 0.013722 -3.175028
v -3.682954 0.013722 -3.156356
v -3.683817 0.013722 -3.137529
v -3.684108 0.013722 -3.118552
v -3.678278 0.013722 -3.031936
v -3.661300 0.013722 -2.948864
v -3.633932 0.013722 -2.870095
v -3.596936 0.013722 -2.796390
v -3.551073 0.013722 -2.728508
v -3.497104 0.013722 -2.667211
v -3.435791 0.013722 -2.613256
v -3.367893 0.013722 -2.567409
v -3.294173 0.013722 -2.530425
v -3.215392 0.013722 -2.503067
v -3.132310 0.013722 -2.486094
v -3.045689 0.013722 -2.480268
v -3.028553 0.013722 -2.480498
v -3.011537 0.013722 -2.481186
v -2.994642 0.013722 -2.482322
v -2.977875 0.013722 -2.483900
v -2.961239 0.013722 -2.485912
v -2.944738 0.013722 -2.488350
v -2.928377 0.013722 -2.491207
v -2.912160 0.013722 -2.494475
v -2.896091 0.013722 -2.498147
v -2.880175 0.013722 -2.502214
v -2.864414 0.013722 -2.506671
v -2.848813 0.013722 -2.511509
v -2.845844 0.013722 -2.526065
v -2.837636 0.013722 -2.566306
v -2.825236 0.013722 -2.627096
v -2.809692 0.013722 -2.703298
v -2.792053 0.013722 -2.789774
v -2.773366 0.013722 -2.881387
v -2.754679 0.013722 -2.973000
v -2.737040 0.013722 -3.059476
v -2.721496 0.013722 -3.135676
v -2.709096 0.013722 -3.196467
v -2.700888 0.013722 -3.236709
v -2.697918 0.013722 -3.251264
v -2.697126 0.013722 -3.255194
vn 0.0000 1.0000 0.0000
vn 0.0000 1.0000 -0.0001
usemtl SVGMat.021
s off
f 211//12 209//12 210//12
f 212//12 209//12 211//12
f 213//12 209//12 212//12
f 214//12 209//12 213//12
f 215//12 209//12 214//12
f 216//12 209//12 215//12
f 217//12 209//12 216//12
f 218//12 209//12 217//12
f 219//12 209//12 218//12
f 219//12 208//12 209//12
f 220//12 208//12 219//12
f 221//12 208//12 220//12
f 235//13 233//13 234//13
f 235//12 232//12 233//12
f 235//12 231//12 232//12
f 235//12 230//12 231//12
f 222//12 208//12 221//12
f 235//12 229//12 230//12
f 235//12 228//12 229//12
f 235//12 227//12 228//12
f 235//12 226//12 227//12
f 235//12 225//12 226//12
f 235//12 224//12 225//12
f 235//12 223//12 224//12
f 235//13 222//13 223//13
f 235//12 208//12 222//12
f 235//12 207//12 208//12
f 235//12 206//12 207//12
f 235//12 205//12 206//12
f 235//12 204//12 205//12
f 235//12 203//12 204//12
f 235//12 202//12 203//12
f 235//12 201//12 202//12
f 235//12 200//12 201//12
f 236//12 200//12 235//12
f 236//12 199//12 200//12
f 237//12 199//12 236//12
f 237//12 198//12 199//12
f 238//12 198//12 237//12
f 238//12 197//12 198//12
f 238//12 196//12 197//12
f 239//12 196//12 238//12
f 239//12 195//12 196//12
f 239//12 194//12 195//12
f 239//12 193//12 194//12
f 239//12 192//12 193//12
f 239//12 191//12 192//12
f 239//12 190//12 191//12
f 239//12 189//12 190//12
f 239//12 188//12 189//12
f 240//12 188//12 239//12
f 240//12 187//12 188//12
f 240//12 186//12 187//12
f 240//12 185//12 186//12
f 240//12 284//12 185//12
f 240//12 283//12 284//12
f 240//12 282//12 283//12
f 241//12 282//12 240//12
f 241//12 281//12 282//12
f 242//12 281//12 241//12
f 243//12 281//12 242//12
f 243//12 280//12 281//12
f 244//12 280//12 243//12
f 245//12 280//12 244//12
f 246//12 280//12 245//12
f 247//12 280//12 246//12
f 247//12 279//12 280//12
f 248//12 279//12 247//12
f 248//12 278//12 279//12
f 249//12 278//12 248//12
f 249//12 277//12 278//12
f 250//12 277//12 249//12
f 250//12 276//12 277//12
f 251//12 276//12 250//12
f 252//12 276//12 251//12
f 252//12 275//12 276//12
f 253//12 275//12 252//12
f 253//12 274//12 275//12
f 254//12 274//12 253//12
f 254//12 273//12 274//12
f 255//12 273//12 254//12
f 256//12 273//12 255//12
f 256//12 272//12 273//12
f 257//12 272//12 256//12
f 257//12 271//12 272//12
f 257//12 270//12 271//12
f 257//12 269//12 270//12
f 258//12 269//12 257//12
f 258//12 268//12 269//12
f 258//12 267//12 268//12
f 258//12 266//12 267//12
f 258//12 265//12 266//12
f 258//12 264//12 265//12
f 259//12 264//12 258//12
f 259//12 263//12 264//12
f 259//12 262//12 263//12
f 259//12 261//12 262//12
f 259//12 260//12 261//12
o path4505
v -4.219355 0.013722 -6.273758
v -4.481187 0.013722 -6.273758
v -4.481187 0.013722 -6.650208
v -4.219355 0.013722 -6.650208
vn 0.0000 1.0000 0.0000
usemtl SVGMat.022
s off
f 286//14 288//14 287//14
f 286//14 285//14 288//14
o path4507
v -4.523237 0.013722 -6.698017
v -4.840551 0.013722 -6.698017
v -4.840551 0.013722 -6.493522
v -4.523237 0.013722 -6.493522
vn 0.0000 1.0000 0.0000
usemtl SVGMat.023
s off
f 291//15 289//15 290//15
f 291//15 292//15 289//15
o path4509
v -4.681909 0.013722 -6.466775
v -4.523265 0.013722 -6.466775
v -4.523265 0.013722 -6.218315
v -4.681909 0.013722 -6.218315
vn 0.0000 1.0000 0.0000
usemtl SVGMat.024
s off
f 296//16 294//16 293//16
f 296//16 295//16 294//16
o path4513
v -3.737659 0.013722 -1.968075
v -4.065946 0.013722 -2.089025
v -3.842177 0.013722 -2.696068
v -3.513890 0.013722 -2.575174
vn 0.0000 1.0000 0.0000
usemtl SVGMat.025
s off
f 298//17 300//17 299//17
f 298//17 297//17 300//17
o path4517
v -3.163699 0.013722 -2.149122
v -3.445184 0.013722 -2.252826
v -3.506154 0.013722 -2.087628
v -3.628119 0.013722 -2.132554
v -3.689229 0.013722 -1.966791
v -3.407743 0.013722 -1.863116
v -3.346831 0.013722 -2.028313
v -3.224837 0.013722 -1.983359
vn 0.0000 1.0000 -0.0000
usemtl SVGMat.026
s off
f 303//18 301//18 302//18
f 303//18 308//18 301//18
f 305//18 303//18 304//18
f 305//18 307//18 303//18
f 307//18 308//18 303//18
f 305//18 306//18 307//18
