<?xml version="1.0" encoding="UTF-8" standalone="no"?>
<!-- Created with Inkscape (http://www.inkscape.org/) -->

<svg
   xmlns:dc="http://purl.org/dc/elements/1.1/"
   xmlns:cc="http://creativecommons.org/ns#"
   xmlns:rdf="http://www.w3.org/1999/02/22-rdf-syntax-ns#"
   xmlns:svg="http://www.w3.org/2000/svg"
   xmlns="http://www.w3.org/2000/svg"
   xmlns:sodipodi="http://sodipodi.sourceforge.net/DTD/sodipodi-0.dtd"
   xmlns:inkscape="http://www.inkscape.org/namespaces/inkscape"
   id="svg4155"
   version="1.1"
   inkscape:version="0.91 r13725"
   xml:space="preserve"
   width="1052.3625"
   height="744.09497"
   viewBox="0 0 1052.3625 744.09497"
   sodipodi:docname="waters.svg"><metadata
     id="metadata4161"><rdf:RDF><cc:Work
         rdf:about=""><dc:format>image/svg+xml</dc:format><dc:type
           rdf:resource="http://purl.org/dc/dcmitype/StillImage" /><dc:title></dc:title></cc:Work></rdf:RDF></metadata><defs
     id="defs4159"><clipPath
       clipPathUnits="userSpaceOnUse"
       id="clipPath4169"><path
         d="m 12.189,28.346 714.614,0 0,538.583 -714.614,0 0,-538.583 z"
         id="path4171"
         inkscape:connector-curvature="0" /></clipPath><clipPath
       clipPathUnits="userSpaceOnUse"
       id="clipPath4221"><path
         d="m 290.25,393.457 0,-8.717 8.716,0 -1.091,0 0,8.717 -7.625,0 z"
         id="path4223"
         inkscape:connector-curvature="0" /></clipPath><clipPath
       clipPathUnits="userSpaceOnUse"
       id="clipPath4233"><path
         d="m 290.25,393.457 0,-8.717 8.716,0 -1.091,0 0,8.717 -7.625,0 z"
         id="path4235"
         inkscape:connector-curvature="0" /></clipPath><clipPath
       clipPathUnits="userSpaceOnUse"
       id="clipPath4247"><path
         d="m 298.966,384.74 7.625,0 0,8.717 -7.625,0 0,-8.717 z"
         id="path4249"
         inkscape:connector-curvature="0" /></clipPath><clipPath
       clipPathUnits="userSpaceOnUse"
       id="clipPath4259"><path
         d="m 298.966,384.74 7.625,0 0,8.717 -7.625,0 0,-8.717 z"
         id="path4261"
         inkscape:connector-curvature="0" /></clipPath><clipPath
       clipPathUnits="userSpaceOnUse"
       id="clipPath4273"><path
         d="m 297.875,384.74 1.092,0 0,8.717 -1.092,0 0,-8.717 z"
         id="path4275"
         inkscape:connector-curvature="0" /></clipPath><clipPath
       clipPathUnits="userSpaceOnUse"
       id="clipPath4285"><path
         d="m 297.875,384.74 1.092,0 0,8.717 -1.092,0 0,-8.717 z"
         id="path4287"
         inkscape:connector-curvature="0" /></clipPath><clipPath
       clipPathUnits="userSpaceOnUse"
       id="clipPath4459"><path
         d="m 12.189,28.346 714.614,0 0,538.583 -714.614,0 0,-538.583 z"
         id="path4461"
         inkscape:connector-curvature="0" /></clipPath><clipPath
       clipPathUnits="userSpaceOnUse"
       id="clipPath5885"><path
         d="m 12.189,28.346 714.614,0 0,538.583 -714.614,0 0,-538.583 z"
         id="path5887"
         inkscape:connector-curvature="0" /></clipPath><clipPath
       clipPathUnits="userSpaceOnUse"
       id="clipPath6039"><path
         d="m 12.189,28.346 714.614,0 0,538.583 -714.614,0 0,-538.583 z"
         id="path6041"
         inkscape:connector-curvature="0" /></clipPath><clipPath
       clipPathUnits="userSpaceOnUse"
       id="clipPath6297"><path
         d="m 12.189,28.346 714.614,0 0,538.583 -714.614,0 0,-538.583 z"
         id="path6299"
         inkscape:connector-curvature="0" /></clipPath><clipPath
       clipPathUnits="userSpaceOnUse"
       id="clipPath6365"><path
         d="m 12.189,28.346 714.614,0 0,538.583 -714.614,0 0,-538.583 z"
         id="path6367"
         inkscape:connector-curvature="0" /></clipPath><clipPath
       clipPathUnits="userSpaceOnUse"
       id="clipPath6557"><path
         d="m 12.189,28.346 714.614,0 0,538.583 -714.614,0 0,-538.583 z"
         id="path6559"
         inkscape:connector-curvature="0" /></clipPath><clipPath
       clipPathUnits="userSpaceOnUse"
       id="clipPath6633"><path
         d="m 12.189,28.346 714.614,0 0,538.583 -714.614,0 0,-538.583 z"
         id="path6635"
         inkscape:connector-curvature="0" /></clipPath><clipPath
       clipPathUnits="userSpaceOnUse"
       id="clipPath6659"><path
         d="m 12.189,28.346 714.614,0 0,538.583 -714.614,0 0,-538.583 z"
         id="path6661"
         inkscape:connector-curvature="0" /></clipPath><clipPath
       clipPathUnits="userSpaceOnUse"
       id="clipPath6775"><path
         d="m 12.189,28.346 714.614,0 0,538.583 -714.614,0 0,-538.583 z"
         id="path6777"
         inkscape:connector-curvature="0" /></clipPath><clipPath
       clipPathUnits="userSpaceOnUse"
       id="clipPath6801"><path
         d="m 12.189,28.346 714.614,0 0,538.583 -714.614,0 0,-538.583 z"
         id="path6803"
         inkscape:connector-curvature="0" /></clipPath><clipPath
       clipPathUnits="userSpaceOnUse"
       id="clipPath6897"><path
         d="m 12.189,28.346 714.614,0 0,538.583 -714.614,0 0,-538.583 z"
         id="path6899"
         inkscape:connector-curvature="0" /></clipPath><clipPath
       clipPathUnits="userSpaceOnUse"
       id="clipPath6913"><path
         d="m 12.189,28.346 714.614,0 0,538.583 -714.614,0 0,-538.583 z"
         id="path6915"
         inkscape:connector-curvature="0" /></clipPath><clipPath
       clipPathUnits="userSpaceOnUse"
       id="clipPath6929"><path
         d="m 12.189,28.346 714.614,0 0,538.583 -714.614,0 0,-538.583 z"
         id="path6931"
         inkscape:connector-curvature="0" /></clipPath><clipPath
       clipPathUnits="userSpaceOnUse"
       id="clipPath6945"><path
         d="m 12.189,28.346 714.614,0 0,538.583 -714.614,0 0,-538.583 z"
         id="path6947"
         inkscape:connector-curvature="0" /></clipPath><clipPath
       clipPathUnits="userSpaceOnUse"
       id="clipPath6961"><path
         d="m 12.189,28.346 714.614,0 0,538.583 -714.614,0 0,-538.583 z"
         id="path6963"
         inkscape:connector-curvature="0" /></clipPath><clipPath
       clipPathUnits="userSpaceOnUse"
       id="clipPath6977"><path
         d="m 12.189,28.346 714.614,0 0,538.583 -714.614,0 0,-538.583 z"
         id="path6979"
         inkscape:connector-curvature="0" /></clipPath><clipPath
       clipPathUnits="userSpaceOnUse"
       id="clipPath6993"><path
         d="m 12.189,28.346 714.614,0 0,538.583 -714.614,0 0,-538.583 z"
         id="path6995"
         inkscape:connector-curvature="0" /></clipPath><clipPath
       clipPathUnits="userSpaceOnUse"
       id="clipPath7009"><path
         d="m 12.189,28.346 714.614,0 0,538.583 -714.614,0 0,-538.583 z"
         id="path7011"
         inkscape:connector-curvature="0" /></clipPath><clipPath
       clipPathUnits="userSpaceOnUse"
       id="clipPath7025"><path
         d="m 12.189,28.346 714.614,0 0,538.583 -714.614,0 0,-538.583 z"
         id="path7027"
         inkscape:connector-curvature="0" /></clipPath><clipPath
       clipPathUnits="userSpaceOnUse"
       id="clipPath7041"><path
         d="m 12.189,28.346 714.614,0 0,538.583 -714.614,0 0,-538.583 z"
         id="path7043"
         inkscape:connector-curvature="0" /></clipPath><clipPath
       clipPathUnits="userSpaceOnUse"
       id="clipPath7057"><path
         d="m 12.189,28.346 714.614,0 0,538.583 -714.614,0 0,-538.583 z"
         id="path7059"
         inkscape:connector-curvature="0" /></clipPath><clipPath
       clipPathUnits="userSpaceOnUse"
       id="clipPath7073"><path
         d="m 12.189,28.346 714.614,0 0,538.583 -714.614,0 0,-538.583 z"
         id="path7075"
         inkscape:connector-curvature="0" /></clipPath><clipPath
       clipPathUnits="userSpaceOnUse"
       id="clipPath7089"><path
         d="m 12.189,28.346 714.614,0 0,538.583 -714.614,0 0,-538.583 z"
         id="path7091"
         inkscape:connector-curvature="0" /></clipPath><clipPath
       clipPathUnits="userSpaceOnUse"
       id="clipPath7105"><path
         d="m 12.189,28.346 714.614,0 0,538.583 -714.614,0 0,-538.583 z"
         id="path7107"
         inkscape:connector-curvature="0" /></clipPath><clipPath
       clipPathUnits="userSpaceOnUse"
       id="clipPath7121"><path
         d="m 12.189,28.346 714.614,0 0,538.583 -714.614,0 0,-538.583 z"
         id="path7123"
         inkscape:connector-curvature="0" /></clipPath><clipPath
       clipPathUnits="userSpaceOnUse"
       id="clipPath7137"><path
         d="m 12.189,28.346 714.614,0 0,538.583 -714.614,0 0,-538.583 z"
         id="path7139"
         inkscape:connector-curvature="0" /></clipPath><clipPath
       clipPathUnits="userSpaceOnUse"
       id="clipPath7153"><path
         d="m 12.189,28.346 714.614,0 0,538.583 -714.614,0 0,-538.583 z"
         id="path7155"
         inkscape:connector-curvature="0" /></clipPath><clipPath
       clipPathUnits="userSpaceOnUse"
       id="clipPath7169"><path
         d="m 12.189,28.346 714.614,0 0,538.583 -714.614,0 0,-538.583 z"
         id="path7171"
         inkscape:connector-curvature="0" /></clipPath><clipPath
       clipPathUnits="userSpaceOnUse"
       id="clipPath7189"><path
         d="m 12.189,28.346 714.614,0 0,538.583 -714.614,0 0,-538.583 z"
         id="path7191"
         inkscape:connector-curvature="0" /></clipPath><clipPath
       clipPathUnits="userSpaceOnUse"
       id="clipPath7205"><path
         d="m 12.189,28.346 714.614,0 0,538.583 -714.614,0 0,-538.583 z"
         id="path7207"
         inkscape:connector-curvature="0" /></clipPath><clipPath
       clipPathUnits="userSpaceOnUse"
       id="clipPath7221"><path
         d="m 12.189,28.346 714.614,0 0,538.583 -714.614,0 0,-538.583 z"
         id="path7223"
         inkscape:connector-curvature="0" /></clipPath><clipPath
       clipPathUnits="userSpaceOnUse"
       id="clipPath7237"><path
         d="m 12.189,28.346 714.614,0 0,538.583 -714.614,0 0,-538.583 z"
         id="path7239"
         inkscape:connector-curvature="0" /></clipPath><clipPath
       clipPathUnits="userSpaceOnUse"
       id="clipPath7253"><path
         d="m 12.189,28.346 714.614,0 0,538.583 -714.614,0 0,-538.583 z"
         id="path7255"
         inkscape:connector-curvature="0" /></clipPath><clipPath
       clipPathUnits="userSpaceOnUse"
       id="clipPath7269"><path
         d="m 12.189,28.346 714.614,0 0,538.583 -714.614,0 0,-538.583 z"
         id="path7271"
         inkscape:connector-curvature="0" /></clipPath><clipPath
       clipPathUnits="userSpaceOnUse"
       id="clipPath7285"><path
         d="m 12.189,28.346 714.614,0 0,538.583 -714.614,0 0,-538.583 z"
         id="path7287"
         inkscape:connector-curvature="0" /></clipPath><clipPath
       clipPathUnits="userSpaceOnUse"
       id="clipPath7301"><path
         d="m 12.189,28.346 714.614,0 0,538.583 -714.614,0 0,-538.583 z"
         id="path7303"
         inkscape:connector-curvature="0" /></clipPath><clipPath
       clipPathUnits="userSpaceOnUse"
       id="clipPath7317"><path
         d="m 12.189,28.346 714.614,0 0,538.583 -714.614,0 0,-538.583 z"
         id="path7319"
         inkscape:connector-curvature="0" /></clipPath><clipPath
       clipPathUnits="userSpaceOnUse"
       id="clipPath7333"><path
         d="m 12.189,28.346 714.614,0 0,538.583 -714.614,0 0,-538.583 z"
         id="path7335"
         inkscape:connector-curvature="0" /></clipPath><clipPath
       clipPathUnits="userSpaceOnUse"
       id="clipPath7349"><path
         d="m 12.189,28.346 714.614,0 0,538.583 -714.614,0 0,-538.583 z"
         id="path7351"
         inkscape:connector-curvature="0" /></clipPath><clipPath
       clipPathUnits="userSpaceOnUse"
       id="clipPath7365"><path
         d="m 12.189,28.346 714.614,0 0,538.583 -714.614,0 0,-538.583 z"
         id="path7367"
         inkscape:connector-curvature="0" /></clipPath><clipPath
       clipPathUnits="userSpaceOnUse"
       id="clipPath7381"><path
         d="m 12.189,28.346 714.614,0 0,538.583 -714.614,0 0,-538.583 z"
         id="path7383"
         inkscape:connector-curvature="0" /></clipPath><clipPath
       clipPathUnits="userSpaceOnUse"
       id="clipPath7397"><path
         d="m 12.189,28.346 714.614,0 0,538.583 -714.614,0 0,-538.583 z"
         id="path7399"
         inkscape:connector-curvature="0" /></clipPath><clipPath
       clipPathUnits="userSpaceOnUse"
       id="clipPath7413"><path
         d="m 12.189,28.346 714.614,0 0,538.583 -714.614,0 0,-538.583 z"
         id="path7415"
         inkscape:connector-curvature="0" /></clipPath><clipPath
       clipPathUnits="userSpaceOnUse"
       id="clipPath7429"><path
         d="m 12.189,28.346 714.614,0 0,538.583 -714.614,0 0,-538.583 z"
         id="path7431"
         inkscape:connector-curvature="0" /></clipPath><clipPath
       clipPathUnits="userSpaceOnUse"
       id="clipPath7445"><path
         d="m 12.189,28.346 714.614,0 0,538.583 -714.614,0 0,-538.583 z"
         id="path7447"
         inkscape:connector-curvature="0" /></clipPath><clipPath
       clipPathUnits="userSpaceOnUse"
       id="clipPath7461"><path
         d="m 12.189,28.346 714.614,0 0,538.583 -714.614,0 0,-538.583 z"
         id="path7463"
         inkscape:connector-curvature="0" /></clipPath><clipPath
       clipPathUnits="userSpaceOnUse"
       id="clipPath7477"><path
         d="m 12.189,28.346 714.614,0 0,538.583 -714.614,0 0,-538.583 z"
         id="path7479"
         inkscape:connector-curvature="0" /></clipPath><clipPath
       clipPathUnits="userSpaceOnUse"
       id="clipPath7493"><path
         d="m 12.189,28.346 714.614,0 0,538.583 -714.614,0 0,-538.583 z"
         id="path7495"
         inkscape:connector-curvature="0" /></clipPath><clipPath
       clipPathUnits="userSpaceOnUse"
       id="clipPath7509"><path
         d="m 12.189,28.346 714.614,0 0,538.583 -714.614,0 0,-538.583 z"
         id="path7511"
         inkscape:connector-curvature="0" /></clipPath><clipPath
       clipPathUnits="userSpaceOnUse"
       id="clipPath7525"><path
         d="m 12.189,28.346 714.614,0 0,538.583 -714.614,0 0,-538.583 z"
         id="path7527"
         inkscape:connector-curvature="0" /></clipPath><clipPath
       clipPathUnits="userSpaceOnUse"
       id="clipPath7541"><path
         d="m 12.189,28.346 714.614,0 0,538.583 -714.614,0 0,-538.583 z"
         id="path7543"
         inkscape:connector-curvature="0" /></clipPath><clipPath
       clipPathUnits="userSpaceOnUse"
       id="clipPath7557"><path
         d="m 12.189,28.346 714.614,0 0,538.583 -714.614,0 0,-538.583 z"
         id="path7559"
         inkscape:connector-curvature="0" /></clipPath><clipPath
       clipPathUnits="userSpaceOnUse"
       id="clipPath7573"><path
         d="m 12.189,28.346 714.614,0 0,538.583 -714.614,0 0,-538.583 z"
         id="path7575"
         inkscape:connector-curvature="0" /></clipPath><clipPath
       clipPathUnits="userSpaceOnUse"
       id="clipPath7589"><path
         d="m 12.189,28.346 714.614,0 0,538.583 -714.614,0 0,-538.583 z"
         id="path7591"
         inkscape:connector-curvature="0" /></clipPath><clipPath
       clipPathUnits="userSpaceOnUse"
       id="clipPath7605"><path
         d="m 12.189,28.346 714.614,0 0,538.583 -714.614,0 0,-538.583 z"
         id="path7607"
         inkscape:connector-curvature="0" /></clipPath><clipPath
       clipPathUnits="userSpaceOnUse"
       id="clipPath7621"><path
         d="m 12.189,28.346 714.614,0 0,538.583 -714.614,0 0,-538.583 z"
         id="path7623"
         inkscape:connector-curvature="0" /></clipPath><clipPath
       clipPathUnits="userSpaceOnUse"
       id="clipPath7637"><path
         d="m 12.189,28.346 714.614,0 0,538.583 -714.614,0 0,-538.583 z"
         id="path7639"
         inkscape:connector-curvature="0" /></clipPath><clipPath
       clipPathUnits="userSpaceOnUse"
       id="clipPath7653"><path
         d="m 12.189,28.346 714.614,0 0,538.583 -714.614,0 0,-538.583 z"
         id="path7655"
         inkscape:connector-curvature="0" /></clipPath><clipPath
       clipPathUnits="userSpaceOnUse"
       id="clipPath7669"><path
         d="m 12.189,28.346 714.614,0 0,538.583 -714.614,0 0,-538.583 z"
         id="path7671"
         inkscape:connector-curvature="0" /></clipPath><clipPath
       clipPathUnits="userSpaceOnUse"
       id="clipPath7685"><path
         d="m 12.189,28.346 714.614,0 0,538.583 -714.614,0 0,-538.583 z"
         id="path7687"
         inkscape:connector-curvature="0" /></clipPath><clipPath
       clipPathUnits="userSpaceOnUse"
       id="clipPath7701"><path
         d="m 12.189,28.346 714.614,0 0,538.583 -714.614,0 0,-538.583 z"
         id="path7703"
         inkscape:connector-curvature="0" /></clipPath><clipPath
       clipPathUnits="userSpaceOnUse"
       id="clipPath7717"><path
         d="m 12.189,28.346 714.614,0 0,538.583 -714.614,0 0,-538.583 z"
         id="path7719"
         inkscape:connector-curvature="0" /></clipPath><clipPath
       clipPathUnits="userSpaceOnUse"
       id="clipPath7733"><path
         d="m 12.189,28.346 714.614,0 0,538.583 -714.614,0 0,-538.583 z"
         id="path7735"
         inkscape:connector-curvature="0" /></clipPath><clipPath
       clipPathUnits="userSpaceOnUse"
       id="clipPath7749"><path
         d="m 12.189,28.346 714.614,0 0,538.583 -714.614,0 0,-538.583 z"
         id="path7751"
         inkscape:connector-curvature="0" /></clipPath><clipPath
       clipPathUnits="userSpaceOnUse"
       id="clipPath7859"><path
         d="m 12.189,28.346 714.614,0 0,538.583 -714.614,0 0,-538.583 z"
         id="path7861"
         inkscape:connector-curvature="0" /></clipPath><clipPath
       clipPathUnits="userSpaceOnUse"
       id="clipPath8151"><path
         d="m 12.189,28.346 714.614,0 0,538.583 -714.614,0 0,-538.583 z"
         id="path8153"
         inkscape:connector-curvature="0" /></clipPath><clipPath
       clipPathUnits="userSpaceOnUse"
       id="clipPath8183"><path
         d="m 12.189,28.346 714.614,0 0,538.583 -714.614,0 0,-538.583 z"
         id="path8185"
         inkscape:connector-curvature="0" /></clipPath><clipPath
       clipPathUnits="userSpaceOnUse"
       id="clipPath8215"><path
         d="m 12.189,28.346 714.614,0 0,538.583 -714.614,0 0,-538.583 z"
         id="path8217"
         inkscape:connector-curvature="0" /></clipPath><clipPath
       clipPathUnits="userSpaceOnUse"
       id="clipPath8247"><path
         d="m 12.189,28.346 714.614,0 0,538.583 -714.614,0 0,-538.583 z"
         id="path8249"
         inkscape:connector-curvature="0" /></clipPath><clipPath
       clipPathUnits="userSpaceOnUse"
       id="clipPath8279"><path
         d="m 12.189,28.346 714.614,0 0,538.583 -714.614,0 0,-538.583 z"
         id="path8281"
         inkscape:connector-curvature="0" /></clipPath><clipPath
       clipPathUnits="userSpaceOnUse"
       id="clipPath8311"><path
         d="m 12.189,28.346 714.614,0 0,538.583 -714.614,0 0,-538.583 z"
         id="path8313"
         inkscape:connector-curvature="0" /></clipPath><clipPath
       clipPathUnits="userSpaceOnUse"
       id="clipPath8331"><path
         d="m 12.189,28.346 714.614,0 0,538.583 -714.614,0 0,-538.583 z"
         id="path8333"
         inkscape:connector-curvature="0" /></clipPath><clipPath
       clipPathUnits="userSpaceOnUse"
       id="clipPath8379"><path
         d="m 12.189,28.346 714.614,0 0,538.583 -714.614,0 0,-538.583 z"
         id="path8381"
         inkscape:connector-curvature="0" /></clipPath><clipPath
       clipPathUnits="userSpaceOnUse"
       id="clipPath8403"><path
         d="m 12.189,28.346 714.614,0 0,538.583 -714.614,0 0,-538.583 z"
         id="path8405"
         inkscape:connector-curvature="0" /></clipPath><clipPath
       clipPathUnits="userSpaceOnUse"
       id="clipPath8443"><path
         d="m 337.547,296.639 -0.145,-0.32 -0.03,-0.066 0,-3.342 7.437,0 0,3.203 -1.15,0.525 -6.112,0 z"
         id="path8445"
         inkscape:connector-curvature="0" /></clipPath><clipPath
       clipPathUnits="userSpaceOnUse"
       id="clipPath8831"><path
         d="m 337.325,292.882 7.514,0 0,7.514 -7.514,0 0,-7.514 z"
         id="path8833"
         inkscape:connector-curvature="0" /></clipPath><clipPath
       clipPathUnits="userSpaceOnUse"
       id="clipPath8851"><path
         d="m 0,0 841.89,0 0,595.275 L 0,595.275 0,0 Z"
         id="path8853"
         inkscape:connector-curvature="0" /></clipPath><clipPath
       clipPathUnits="userSpaceOnUse"
       id="clipPath8889"><path
         d="m 0,0 841.89,0 0,595.275 L 0,595.275 0,0 Z"
         id="path8891"
         inkscape:connector-curvature="0" /></clipPath><clipPath
       clipPathUnits="userSpaceOnUse"
       id="clipPath9643"><path
         d="m 612.284,14.641 214.102,0 0,41.201 -214.102,0 0,-41.201 z"
         id="path9645"
         inkscape:connector-curvature="0" /></clipPath><clipPath
       clipPathUnits="userSpaceOnUse"
       id="clipPath9723"><path
         d="m 0,0 841.89,0 0,595.275 L 0,595.275 0,0 Z"
         id="path9725"
         inkscape:connector-curvature="0" /></clipPath><clipPath
       clipPathUnits="userSpaceOnUse"
       id="clipPath9747"><path
         d="m 0,0 841.89,0 0,595.275 L 0,595.275 0,0 Z"
         id="path9749"
         inkscape:connector-curvature="0" /></clipPath><clipPath
       clipPathUnits="userSpaceOnUse"
       id="clipPath9779"><path
         d="m 0,0 841.89,0 0,595.275 L 0,595.275 0,0 Z"
         id="path9781"
         inkscape:connector-curvature="0" /></clipPath><clipPath
       clipPathUnits="userSpaceOnUse"
       id="clipPath9813"><path
         d="m 0,0 841.89,0 0,595.275 L 0,595.275 0,0 Z"
         id="path9815"
         inkscape:connector-curvature="0" /></clipPath><clipPath
       clipPathUnits="userSpaceOnUse"
       id="clipPath9829"><path
         d="m 27.53,276.264 8.531,0 0,7.474 -8.531,0 0,-7.474 z"
         id="path9831"
         inkscape:connector-curvature="0" /></clipPath><clipPath
       clipPathUnits="userSpaceOnUse"
       id="clipPath9859"><path
         d="m 0,0 841.89,0 0,595.275 L 0,595.275 0,0 Z"
         id="path9861"
         inkscape:connector-curvature="0" /></clipPath><clipPath
       clipPathUnits="userSpaceOnUse"
       id="clipPath9917"><path
         d="m 0,0 841.89,0 0,595.275 L 0,595.275 0,0 Z"
         id="path9919"
         inkscape:connector-curvature="0" /></clipPath><clipPath
       clipPathUnits="userSpaceOnUse"
       id="clipPath9939"><path
         d="m 0,0 841.89,0 0,595.275 L 0,595.275 0,0 Z"
         id="path9941"
         inkscape:connector-curvature="0" /></clipPath><clipPath
       clipPathUnits="userSpaceOnUse"
       id="clipPath9961"><path
         d="m 0,0 841.89,0 0,595.275 L 0,595.275 0,0 Z"
         id="path9963"
         inkscape:connector-curvature="0" /></clipPath><clipPath
       clipPathUnits="userSpaceOnUse"
       id="clipPath9987"><path
         d="m 0,0 841.89,0 0,595.275 L 0,595.275 0,0 Z"
         id="path9989"
         inkscape:connector-curvature="0" /></clipPath><clipPath
       clipPathUnits="userSpaceOnUse"
       id="clipPath10011"><path
         d="m 0,0 841.89,0 0,595.275 L 0,595.275 0,0 Z"
         id="path10013"
         inkscape:connector-curvature="0" /></clipPath><clipPath
       clipPathUnits="userSpaceOnUse"
       id="clipPath10033"><path
         d="m 0,0 841.89,0 0,595.275 L 0,595.275 0,0 Z"
         id="path10035"
         inkscape:connector-curvature="0" /></clipPath><clipPath
       clipPathUnits="userSpaceOnUse"
       id="clipPath10053"><path
         d="m 0,0 841.89,0 0,595.275 L 0,595.275 0,0 Z"
         id="path10055"
         inkscape:connector-curvature="0" /></clipPath><clipPath
       clipPathUnits="userSpaceOnUse"
       id="clipPath10075"><path
         d="m 26.188,174.361 0,-6.097 5.883,0 -0.738,0 0,6.097 -5.145,0 z"
         id="path10077"
         inkscape:connector-curvature="0" /></clipPath><clipPath
       clipPathUnits="userSpaceOnUse"
       id="clipPath10089"><path
         d="m 32.071,168.264 5.333,0 0,6.097 -5.333,0 0,-6.097 z m -0.764,6.097 0.764,0 -0.764,0 z"
         id="path10091"
         inkscape:connector-curvature="0" /></clipPath><clipPath
       clipPathUnits="userSpaceOnUse"
       id="clipPath10103"><path
         d="m 31.307,168.264 0.764,0 0,6.097 -0.764,0 0,-6.097 z"
         id="path10105"
         inkscape:connector-curvature="0" /></clipPath><clipPath
       clipPathUnits="userSpaceOnUse"
       id="clipPath10123"><path
         d="m 0,0 841.89,0 0,595.275 L 0,595.275 0,0 Z"
         id="path10125"
         inkscape:connector-curvature="0" /></clipPath><clipPath
       clipPathUnits="userSpaceOnUse"
       id="clipPath10145"><path
         d="m 0,0 841.89,0 0,595.275 L 0,595.275 0,0 Z"
         id="path10147"
         inkscape:connector-curvature="0" /></clipPath><clipPath
       clipPathUnits="userSpaceOnUse"
       id="clipPath10167"><path
         d="m 27.043,132.264 9.505,0 0,7.134 -9.505,0 0,-7.134 z"
         id="path10169"
         inkscape:connector-curvature="0" /></clipPath><clipPath
       clipPathUnits="userSpaceOnUse"
       id="clipPath10225"><path
         d="m 0,0 841.89,0 0,595.275 L 0,595.275 0,0 Z"
         id="path10227"
         inkscape:connector-curvature="0" /></clipPath><clipPath
       clipPathUnits="userSpaceOnUse"
       id="clipPath10311"><path
         d="m 28.045,107.207 7.501,0 0,8.734 -7.501,0 0,-8.734 z"
         id="path10313"
         inkscape:connector-curvature="0" /></clipPath><clipPath
       clipPathUnits="userSpaceOnUse"
       id="clipPath10429"><path
         d="m 0,0 841.89,0 0,595.275 L 0,595.275 0,0 Z"
         id="path10431"
         inkscape:connector-curvature="0" /></clipPath><clipPath
       clipPathUnits="userSpaceOnUse"
       id="clipPath10451"><path
         d="m 0,0 841.89,0 0,595.275 L 0,595.275 0,0 Z"
         id="path10453"
         inkscape:connector-curvature="0" /></clipPath><clipPath
       clipPathUnits="userSpaceOnUse"
       id="clipPath10513"><path
         d="m 27.471,73.472 8.65,0 0,3.645 -8.65,0 0,-3.645 z"
         id="path10515"
         inkscape:connector-curvature="0" /></clipPath><clipPath
       clipPathUnits="userSpaceOnUse"
       id="clipPath10535"><path
         d="m 27.667,61.473 8.258,0 0,3.279 -8.258,0 0,-3.279 z"
         id="path10537"
         inkscape:connector-curvature="0" /></clipPath><clipPath
       clipPathUnits="userSpaceOnUse"
       id="clipPath10561"><path
         d="m 0,0 841.89,0 0,595.275 L 0,595.275 0,0 Z"
         id="path10563"
         inkscape:connector-curvature="0" /></clipPath><clipPath
       clipPathUnits="userSpaceOnUse"
       id="clipPath10571"><path
         d="m 28.652,48.29 6.303,0 0,3.158 -6.303,0 0,-3.158 z"
         id="path10573"
         inkscape:connector-curvature="0" /></clipPath><clipPath
       clipPathUnits="userSpaceOnUse"
       id="clipPath10975"><path
         d="m 0,0 841.89,0 0,595.275 L 0,595.275 0,0 Z"
         id="path10977"
         inkscape:connector-curvature="0" /></clipPath><clipPath
       clipPathUnits="userSpaceOnUse"
       id="clipPath10987"><path
         d="m 0,0 841.89,0 0,595.275 L 0,595.275 0,0 Z"
         id="path10989"
         inkscape:connector-curvature="0" /></clipPath><clipPath
       clipPathUnits="userSpaceOnUse"
       id="clipPath11011"><path
         d="m 0,0 841.89,0 0,595.275 L 0,595.275 0,0 Z"
         id="path11013"
         inkscape:connector-curvature="0" /></clipPath><clipPath
       clipPathUnits="userSpaceOnUse"
       id="clipPath11031"><path
         d="m 0,0 841.89,0 0,595.275 L 0,595.275 0,0 Z"
         id="path11033"
         inkscape:connector-curvature="0" /></clipPath><clipPath
       clipPathUnits="userSpaceOnUse"
       id="clipPath11053"><path
         d="m 0,0 841.89,0 0,595.275 L 0,595.275 0,0 Z"
         id="path11055"
         inkscape:connector-curvature="0" /></clipPath><clipPath
       clipPathUnits="userSpaceOnUse"
       id="clipPath11081"><path
         d="m 754.998,74.835 26.826,0 0,7.904 -26.826,0 0,-7.904 z"
         id="path11083"
         inkscape:connector-curvature="0" /></clipPath><clipPath
       clipPathUnits="userSpaceOnUse"
       id="clipPath11187"><path
         d="m 786.518,74.844 26.673,0 0,7.898 -26.673,0 0,-7.898 z"
         id="path11189"
         inkscape:connector-curvature="0" /></clipPath><clipPath
       clipPathUnits="userSpaceOnUse"
       id="clipPath11265"><path
         d="m 791.035,78.826 0,-0.058 0.816,-0.815 0.019,0.01 0.965,0.549 c 0.277,0.157 0.277,0.414 0,0.57 l 0,0 -0.965,0.549 -0.019,0.011 -0.816,-0.816 z"
         id="path11267"
         inkscape:connector-curvature="0" /></clipPath><linearGradient
       x1="0"
       y1="0"
       x2="1"
       y2="0"
       gradientUnits="userSpaceOnUse"
       gradientTransform="matrix(-4.7772101,0,0,4.7772101,792.65599,78.797068)"
       spreadMethod="pad"
       id="linearGradient11273"><stop
         style="stop-opacity:1;stop-color:#f9e106"
         offset="0"
         id="stop11275" /><stop
         style="stop-opacity:1;stop-color:#f79011"
         offset="1"
         id="stop11277" /></linearGradient><clipPath
       clipPathUnits="userSpaceOnUse"
       id="clipPath11285"><path
         d="m 788.575,76.336 c 0.09,-0.096 0.241,-0.108 0.41,-0.011 l 0,0 2.885,1.638 -0.835,0.834 -2.46,-2.461 z"
         id="path11287"
         inkscape:connector-curvature="0" /></clipPath><linearGradient
       x1="0"
       y1="0"
       x2="1"
       y2="0"
       gradientUnits="userSpaceOnUse"
       gradientTransform="matrix(-4.4932071,-4.4932071,-4.4932071,4.4932071,791.41624,78.344025)"
       spreadMethod="pad"
       id="linearGradient11293"><stop
         style="stop-opacity:1;stop-color:#ef2f41"
         offset="0"
         id="stop11295" /><stop
         style="stop-opacity:1;stop-color:#c80d6b"
         offset="1"
         id="stop11297" /></linearGradient><clipPath
       clipPathUnits="userSpaceOnUse"
       id="clipPath11305"><path
         d="m 788.575,81.257 2.46,-2.46 0.835,0.834 -2.885,1.639 c -0.079,0.045 -0.154,0.067 -0.221,0.067 l 0,0 c -0.076,0 -0.141,-0.028 -0.189,-0.08"
         id="path11307"
         inkscape:connector-curvature="0" /></clipPath><linearGradient
       x1="0"
       y1="0"
       x2="1"
       y2="0"
       gradientUnits="userSpaceOnUse"
       gradientTransform="matrix(3.6685847,-3.6685847,-3.6685847,-3.6685847,786.90302,83.763495)"
       spreadMethod="pad"
       id="linearGradient11313"><stop
         style="stop-opacity:1;stop-color:#39a36a"
         offset="0"
         id="stop11315" /><stop
         style="stop-opacity:1;stop-color:#6cc858"
         offset="0.73696312"
         id="stop11317" /><stop
         style="stop-opacity:1;stop-color:#6cc858"
         offset="1"
         id="stop11319" /></linearGradient><clipPath
       clipPathUnits="userSpaceOnUse"
       id="clipPath11327"><path
         d="m 712.063,70.39 40.341,0 0,45.831 -40.341,0 0,-45.831 z"
         id="path11329"
         inkscape:connector-curvature="0" /></clipPath></defs><sodipodi:namedview
     pagecolor="#ffffff"
     bordercolor="#666666"
     borderopacity="1"
     objecttolerance="10"
     gridtolerance="10"
     guidetolerance="10"
     inkscape:pageopacity="0"
     inkscape:pageshadow="2"
     inkscape:window-width="1918"
     inkscape:window-height="1064"
     id="namedview4157"
     showgrid="false"
     inkscape:zoom="1.2122109"
     inkscape:cx="463.61286"
     inkscape:cy="387.41603"
     inkscape:window-x="0"
     inkscape:window-y="14"
     inkscape:window-maximized="0"
     inkscape:current-layer="g4163" /><g
     id="g4163"
     inkscape:groupmode="layer"
     inkscape:label="campusmap"
     transform="matrix(1.25,0,0,-1.25,0,744.095)"><g
       id="g4295"
       transform="translate(629.463,160.5026)"><path
         d="m 0,0 1.69,0.203 0.135,-1.825 0.069,-1.69 0,-1.489 -0.204,-1.69 -0.069,-1.147 -0.2,-0.678 -0.407,-1.082 -0.337,-0.538 -0.407,-0.543 -0.539,-0.742 -0.948,-0.878 -0.876,-0.947 -1.152,-1.422 -0.608,-0.741 -0.269,-0.743 -0.339,-1.217 -0.135,-0.744 -3.449,-23.252 -1.147,-5.813 -0.474,-2.434 -0.542,-1.216 -1.013,-0.408 -2.771,0.473 -0.676,0.743 -1.69,8.52 -0.068,0.673 2.772,9.939 2.568,8.787 1.151,3.786 0.743,2.836 0.339,0.881 0.539,0.809 0.608,0.61 0.811,0.88 0.879,0.538 1.894,1.151 2.093,2.094 0.678,0.743 0.338,0.543 0.337,1.217 0.203,0.876 0.27,1.016 0.068,1.15 0.066,1.081 L 0,0 Z"
         style="fill:#87d8f7;fill-opacity:1;fill-rule:evenodd;stroke:none"
         id="path4297"
         inkscape:connector-curvature="0" /></g><g
       id="g4299"
       transform="translate(629.463,160.5026)"><path
         d="m 0,0 1.69,0.203 0.135,-1.825 0.069,-1.69 0,-1.489 -0.204,-1.69 -0.069,-1.147 -0.2,-0.678 -0.407,-1.082 -0.337,-0.538 -0.407,-0.543 -0.539,-0.742 -0.948,-0.878 -0.876,-0.947 -1.152,-1.422 -0.608,-0.741 -0.269,-0.743 -0.339,-1.217 -0.135,-0.744 -3.449,-23.252 -1.147,-5.813 -0.474,-2.434 -0.542,-1.216 -1.013,-0.408 -2.771,0.473 -0.676,0.743 -1.69,8.52 -0.068,0.673 2.772,9.939 2.568,8.787 1.151,3.786 0.743,2.836 0.339,0.881 0.539,0.809 0.608,0.61 0.811,0.88 0.879,0.538 1.894,1.151 2.093,2.094 0.678,0.743 0.338,0.543 0.337,1.217 0.203,0.876 0.27,1.016 0.068,1.15 0.066,1.081 L 0,0 Z"
         style="fill:#87d8f7;fill-opacity:1;fill-rule:evenodd;stroke:none"
         id="path4301"
         inkscape:connector-curvature="0" /></g><g
       id="g4303"
       transform="translate(558.6921,107.9814)"><path
         d="m 0,0 33.662,2.366 1.217,0.541 0.677,0.608 0.609,0.811 0.539,0.811 0.542,1.282 0.405,1.352 0.134,1.151 -0.473,1.285 -0.608,0.675 -0.811,0.812 -0.879,0.811 -1.081,0.744 -1.082,0.473 -0.879,0.405 -2.77,0.947 -1.486,0.473 -0.813,0.135 -1.014,0.269 -1.149,0.069 -1.082,0.065 -1.621,-0.2 L 20.752,15.612 19.805,15.276 -1.419,5.946 -2.163,5.473 -2.771,4.799 -3.109,3.783 -3.176,3.039 -3.109,2.298 -2.839,1.62 -2.366,0.946 -1.893,0.54 -1.217,0.268 -0.744,0.068 0,0 Z"
         style="fill:#87d8f7;fill-opacity:1;fill-rule:evenodd;stroke:none"
         id="path4305"
         inkscape:connector-curvature="0" /></g><g
       id="g4307"
       transform="translate(600.2633,317.3219)"><path
         d="m 0,0 24.401,-3.853 1.353,-0.068 1.013,0.068 1.083,0.203 9.531,2.839 0.135,0.203 0.134,0.067 0.067,0.203 0,0.203 -0.067,0.27 -0.067,0.068 -6.287,8.382 -0.339,0.202 -0.2,0.068 -0.339,0.067 -0.338,0 L 29.878,8.855 27.577,7.841 26.633,7.165 25.417,6.286 24.537,5.543 23.927,5.205 23.591,5.137 l -0.88,0 -16.629,2.501 -0.27,0 -0.269,0.135 -0.27,0.271 -3.244,6.083 -0.27,0.473 -0.137,0.271 -0.541,0.541 -0.339,0.135 -0.336,0.203 -0.474,0.135 -0.27,0.067 -0.27,0 -2.703,0.068 -0.204,-0.068 -0.404,-0.202 -0.272,-0.203 -0.136,-0.203 -0.134,-0.406 0,-0.743 0.204,-1.149 0.134,-1.217 0.135,-0.811 L -3.584,7.773 -3.111,5.746 -2.702,3.92 -2.229,2.501 -1.96,1.622 -1.555,0.946 -1.15,0.541 -0.677,0.27 -0.338,0.068 0,0 Z"
         style="fill:#87d8f7;fill-opacity:1;fill-rule:evenodd;stroke:none"
         id="path4309"
         inkscape:connector-curvature="0" /></g><g
       id="g4311"
       transform="translate(437.1581,284.8762)"><path
         d="m 0,0 46.843,7.571 0.608,0.135 0.676,0.135 0.608,0.204 1.082,0.538 0.607,0.543 0.272,0.474 0.202,0.608 -0.067,0.809 -0.608,1.962 -0.406,1.217 -0.271,0.538 -0.54,0.543 -0.811,0.609 -6.084,5.001 -0.879,0.542 -0.474,0.335 -0.336,0.204 -0.542,0.203 -0.541,0.269 -0.404,0.137 -0.407,0.135 -0.338,0.135 -1.013,0.202 -0.745,0.136 -0.877,0.069 -1.149,0.066 -1.217,-0.066 -1.151,-0.136 -1.081,-0.271 -1.621,-0.947 -0.879,-0.541 -2.163,-1.485 -0.878,-0.542 -1.489,-1.081 -1.148,-0.813 -1.351,-1.013 -1.555,-1.285 -1.962,-1.487 -0.473,-0.404 -0.404,-0.204 -0.339,-0.066 -0.337,-0.068 -0.338,0 -0.407,0.134 -0.539,0.204 -0.271,0.066 -0.946,0.273 -0.407,0.134 -0.743,0.27 -0.54,0.135 -0.608,0.203 -0.811,0.202 -1.217,0.137 -0.879,0.065 -1.15,0.07 L 5.947,14.734 4.461,14.397 3.176,13.857 1.757,12.979 0.608,12.302 0.203,12.098 -0.406,11.289 -0.541,10.748 -0.608,0.946 -0.608,0.677 -0.541,0.473 -0.406,0.269 -0.27,0.134 -0.135,0.069 0,0 Z"
         style="fill:#87d8f7;fill-opacity:1;fill-rule:evenodd;stroke:none"
         id="path4313"
         inkscape:connector-curvature="0" /></g><g
       id="g4315"
       transform="translate(376.5253,363.8945)"><path
         d="m 0,0 -27.173,16.966 -0.338,0.068 -0.27,-0.068 -0.338,-0.338 -0.203,-0.338 -0.135,-0.473 -0.271,-1.217 -0.203,-0.676 -0.27,-0.946 -0.338,-1.96 -0.203,-1.69 -0.405,-2.163 -0.406,-2.974 -0.405,-3.109 -0.136,-1.285 -0.202,-2.298 -0.406,-3.921 -0.27,-4.055 -0.135,-2.569 -0.069,-1.96 -0.067,-2.433 -0.067,-1.014 0,-0.879 8.111,0 -0.135,17.913 L 0,-1.149 0,0 Z"
         style="fill:#87d8f7;fill-opacity:1;fill-rule:evenodd;stroke:none"
         id="path4317"
         inkscape:connector-curvature="0" /></g><g
       id="g4319"
       transform="translate(352.3259,343.8868)"><path
         d="m 0,0 -8.11,0 -0.069,-0.879 0,-1.352 -0.135,-1.554 0,-1.69 0.135,-1.758 -0.135,-1.487 -0.135,-1.216 -0.27,-1.42 -0.879,-2.636 -0.744,-1.487 -0.675,-1.42 -0.812,-1.757 -0.811,-1.69 -0.473,-1.217 -0.337,-1.149 -0.338,-1.622 -0.135,-2.434 0,-2.636 2.702,0 0,0.947 0.069,0.135 0,0.067 0.066,0 0.204,0.068 0.203,0 0.067,2.569 2.029,0.067 0.066,-0.067 0.068,0 0,-0.136 0.068,-0.405 5.07,0 0,0.338 0.066,0.135 0.069,0.068 0.067,0.067 0.135,0 2.028,-0.067 0,-2.569 0.339,0 0.203,-0.135 -0.069,-2.096 -0.473,0 0,-0.946 0.542,0 0,-1.96 -0.069,-0.069 0,-0.134 -0.203,0 -0.27,-0.068 0,-2.636 -1.959,0 -0.136,0.068 -0.068,0.066 0,0.339 -3.11,0.068 0,-1.014 0.61,0 0,-1.96 -0.068,-0.134 -0.069,-0.069 0,-0.069 -0.405,0 0,-5.137 0.27,0 0.135,-0.066 0.069,0 0.068,-0.068 0,-2.095 -0.542,0 0,-0.946 3.042,0 0,0.405 0.068,0.067 5.272,0 0,-0.067 0.067,-0.136 0,-0.269 3.042,0 0.069,0.946 -0.609,0 0.067,2.026 0,0.069 0.069,0.068 0.066,0.066 0.338,0 0,2.367 0.677,0 -0.069,3.38 -0.135,0 L 4.936,-1.082 0,-1.082 0,0 Z"
         style="fill:#87d8f7;fill-opacity:1;fill-rule:evenodd;stroke:none"
         id="path4321"
         inkscape:connector-curvature="0" /></g><g
       id="g4323"
       transform="translate(446.4182,216.8766)"><path
         d="m 0,0 -1.284,2.501 -1.825,3.918 -1.285,2.706 -1.081,2.704 -0.879,2.163 -1.014,2.837 -1.217,5.815 -0.27,1.96 0.135,0.338 0.068,0.406 0.338,0.54 0.946,0.945 0.54,0.473 0.608,0.473 0.812,0.34 0.947,0.338 0.811,0.136 1.419,0 0.879,-0.205 0.744,-0.136 0.473,-0.133 6.489,-4.936 2.839,-0.066 3.65,2.704 2.433,-0.07 0,-3.041 -2.298,0 -0.067,-5.473 2.365,0 0,1.081 1.42,0 0,-1.151 2.366,0 0.066,-2.298 0.677,0 0.203,-9.597 0.879,0 0,-0.473 L 19.128,4.256 17.845,3.853 16.155,3.31 14.6,2.636 13.113,2.028 11.829,1.555 10.004,0.811 6.624,-0.541 5.137,-1.15 4.191,-1.487 3.718,-1.622 3.042,-1.69 2.569,-1.69 2.229,-1.622 1.96,-1.557 1.69,-1.422 1.217,-1.287 0.811,-0.949 0.54,-0.744 0.27,-0.406 0,0 Z"
         style="fill:#87d8f7;fill-opacity:1;fill-rule:evenodd;stroke:none"
         id="path4325"
         inkscape:connector-curvature="0" /></g><g
       id="g4327"
       transform="translate(122.5039,415.469)"><path
         d="m 0,0 -0.473,2.095 -0.134,-0.067 -0.069,0.27 -25.754,-5.205 -0.946,0 -0.404,0.068 -0.271,0.068 -0.677,0.338 -28.727,14.938 -0.405,0.068 -0.338,0.067 -0.135,-0.135 -0.069,-0.203 -0.066,-0.27 0.945,-0.946 0.407,-0.338 0.473,-0.474 0.675,-0.54 1.15,-1.082 17.303,-12.91 7.436,-7.098 0.338,0 1.622,0.338 2.568,0.811 3.245,1.014 3.448,1.082 3.38,1.216 2.771,1.014 2.703,1.285 3.922,1.892 2.163,0.947 1.283,0.675 0.743,0.338 0.677,0.203 1.148,0.406 L -0.134,0 0,0 Z"
         style="fill:#87d8f7;fill-opacity:1;fill-rule:evenodd;stroke:none"
         id="path4329"
         inkscape:connector-curvature="0" /></g><g
       id="g4331"
       transform="translate(132.576,323.3376)"><path
         d="m 0,0 0.068,0.068 4.19,-1.217 0.406,-0.135 0.27,-0.068 0.338,-0.067 0.406,-0.203 0.203,-0.135 0.339,-0.203 0.539,-0.338 0.338,-0.135 0.203,-0.136 0.203,-0.135 0.203,-0.067 0.405,-0.203 0.136,-0.068 0.135,0 0.27,-0.135 L 8.72,-3.245 8.787,-3.38 8.855,-3.65 8.72,-4.191 8.652,-4.596 8.517,-5.137 8.382,-5.948 7.435,-10.612 7.3,-11.018 7.165,-11.288 7.03,-11.626 6.895,-11.897 6.759,-12.235 6.557,-12.641 6.354,-12.978 6.286,-13.18 l -0.135,-0.205 0,-0.134 -0.067,-0.203 0,-0.27 0.136,-0.27 11.829,-26.565 0.134,-0.406 0.135,-0.338 0.203,-0.271 0.203,-0.134 0.203,-0.202 0.337,-0.137 0.475,-0.134 2.702,0 0.744,-0.068 1.217,0 0.608,-0.069 0.744,0 0.744,-0.065 1.148,-0.136 0.811,-0.136 0.811,-0.136 0.61,-0.065 0.675,-0.137 0.405,-0.068 0.338,-0.134 0.272,-0.069 0.202,0.136 0.067,0.337 1.149,3.449 0.068,0.27 -0.135,0.203 -0.609,0.404 -0.27,0.136 -0.472,0.271 -1.218,0.676 -2.636,1.419 -2.028,1.083 -0.811,0.473 -0.406,0.27 -0.338,0.269 -0.202,0.27 -0.271,0.271 -0.203,0.405 -0.202,0.542 -3.448,8.383 -0.203,0.473 -0.135,0.538 -0.067,0.61 0,2.568 0.135,16.493 0,0.271 0.135,0.338 0.135,0.473 0.338,0.406 0.473,0.405 0.474,0.271 14.194,9.868 0.947,0.676 0.676,0.676 0.27,0.473 0.27,0.541 0.136,0.541 0.067,0.473 0.068,0.406 -0.203,0.405 -0.338,0.068 -0.135,0 -10.748,0.135 -0.202,-0.068 -0.406,-0.067 -0.27,-0.203 -0.338,-0.27 L 20.954,6.962 20.616,6.692 19.739,5.813 19.129,5.272 18.521,4.867 17.304,3.853 15.952,2.771 15.074,2.231 13.992,1.69 13.249,1.352 12.505,0.879 11.559,0.473 10.748,0.068 10.004,-0.27 9.734,-0.406 9.328,-0.541 8.855,-0.608 7.706,-0.608 7.165,-0.473 6.827,-0.406 6.422,-0.27 6.016,-0.203 4.664,0.27 4.326,0.338 3.921,0.541 3.583,0.608 3.177,0.676 2.704,0.744 2.095,0.811 l -1.149,0 -0.338,-0.067 -0.473,0 -0.27,0.135 L -0.338,0.946 0,0 Z"
         style="fill:#87d8f7;fill-opacity:1;fill-rule:evenodd;stroke:none"
         id="path4333"
         inkscape:connector-curvature="0" /></g><g
       id="g4335"
       transform="translate(250.6643,228.7739)"><path
         d="m 0,0 -2.433,0.133 -1.825,0 -2.434,-0.203 -3.244,-0.403 -2.366,-0.204 -1.487,-0.27 -0.811,-0.136 0.473,-10.273 0,-0.88 0.067,-0.88 -0.136,-0.673 -0.337,-1.017 -0.541,-0.944 -0.878,-0.946 -0.947,-0.543 -1.69,-0.876 -31.094,-15.682 -0.135,-0.744 -0.202,-0.743 -0.136,-0.813 -0.136,-0.677 -0.201,-0.743 -0.135,-0.674 -0.272,-0.88 -0.269,-0.743 -0.406,-1.216 -0.338,-0.677 -0.473,-0.54 -0.27,-0.27 -0.271,-0.339 -0.202,-0.204 0,-0.403 0.135,-0.543 0.135,-0.337 0.135,-0.473 0.068,-0.271 -0.068,-0.337 -0.203,-0.272 -0.338,-0.271 0.202,-0.403 0.272,0.066 0.27,0 0.135,-0.066 0.135,-0.136 0.068,-0.203 0.135,-0.541 0.135,-0.407 0.135,-0.336 0.203,-0.474 0.135,-0.27 0.203,-0.269 0.81,-0.814 0.204,-0.134 0.135,-0.066 0.136,-0.136 0.269,-0.067 0.136,-0.07 0.27,-0.066 0.202,0 0.407,-0.068 0.27,-0.066 0.338,-0.07 0.135,0 0.609,-0.203 0.338,-0.134 0.201,-0.066 0.272,-0.137 0.202,-0.134 0.339,-0.136 0.269,-0.136 0.204,-0.134 0.473,-0.27 0.338,-0.27 0.405,-0.339 0.541,-0.541 0.609,-0.54 0.473,-0.473 0.405,-0.473 0.338,-0.541 0.473,-0.609 0.406,-0.676 0.338,-0.541 0.135,-0.337 0.135,-0.406 0.203,-0.406 0.135,-0.404 0.136,-0.543 0.135,-0.607 0.067,-0.474 0,-0.405 0.067,-0.541 0,-1.149 -0.067,-0.407 -0.067,-0.54 -0.135,-0.947 -0.069,-0.403 -0.135,-0.407 -0.136,-0.61 -0.269,-0.743 -0.135,-0.269 -0.135,-0.405 -0.271,-0.473 -0.136,-0.203 -0.202,-0.27 -0.135,-0.27 -0.136,-0.203 -0.135,-0.137 -0.067,-0.134 0.067,-0.068 0,-0.134 0.135,-0.341 4.124,-9.259 0.136,-0.203 0.27,-0.27 0.068,-0.136 0.27,0 0.338,-0.067 0.473,0 0.27,-0.134 0.406,-0.136 0.269,-0.067 0.135,-0.07 0.204,-0.066 0.134,-0.068 0.407,-0.269 0.337,-0.204 0.271,-0.203 0.337,-0.336 0.338,-0.271 0.339,-0.473 0.27,-0.339 0.135,-0.204 0.136,-0.337 0.135,-0.407 0.202,-0.473 0.069,-0.539 0.066,-0.608 0,-1.15 -0.135,-0.609 -0.135,-0.473 -0.134,-0.54 -0.204,-0.337 -0.135,-0.27 -0.202,-0.339 -0.203,-0.271 -0.069,-0.203 -0.201,-0.204 0,-0.473 0.066,-0.134 0.272,-0.676 0.203,-0.54 0.269,-0.676 0.406,-0.947 0.338,-0.81 0.744,-1.893 0.54,-1.217 0.135,-0.269 0.407,-0.88 0.066,-0.134 0.069,-0.069 0.135,0 0.203,-0.068 0.405,0 0.811,0.137 0.609,0.134 0.81,0.066 0.744,-0.066 0.609,-0.068 1.149,-0.135 0.811,-0.068 0.811,-0.27 0.541,-0.136 0.742,-0.27 0.475,-0.204 0.607,-0.336 1.623,-1.083 0.541,-0.607 0.608,-0.61 0.743,-0.876 0.473,-0.814 0.542,-0.81 0.338,-0.743 0.201,-0.473 0.204,-0.407 0.338,-0.876 0.136,-0.543 0.27,-0.744 0.068,-0.269 0.135,-0.204 0.066,-0.067 0.339,0 0.203,0.067 0.202,0.136 0.271,0.203 0.202,0.27 0.204,0.204 0,0.067 -0.813,5.272 -0.066,0.337 0,0.27 -0.069,0.339 -0.134,0.271 -0.54,0.54 -13.249,8.382 -0.27,0.271 -0.338,0.27 -0.271,0.406 -0.271,0.54 -0.067,0.337 0,8.249 -0.135,0.744 -0.407,0.743 -0.539,0.946 -0.879,1.013 -6.219,7.639 -0.339,0.541 -0.473,0.54 0,0.676 -0.066,0.877 -0.068,14.806 0,0.876 -0.068,0.204 -0.271,0.339 -0.135,0.134 -6.691,5.339 -0.473,0.271 -0.406,0.609 -0.136,0.271 0,8.042 0.069,0.137 0.067,0.202 0.068,0.134 0.067,0.204 0.406,0.406 0.135,0.067 37.311,22.035 -0.338,1.016 0.069,0.54 0,0.337 0.068,0.407 0.135,0.336 0.066,0.341 0.204,0.473 0.203,0.337 0.27,0.405 0.473,0.407 0.474,0.471 0.946,0.677 0.879,0.676 0.675,0.539 0.744,0.814 0.81,1.217 0.542,0.946 0.54,1.013 0.339,0.811 0.203,0.539 0.135,0.543 L 0,0 Z"
         style="fill:#87d8f7;fill-opacity:1;fill-rule:evenodd;stroke:none"
         id="path4337"
         inkscape:connector-curvature="0" /></g><g
       id="g4339"
       transform="translate(386.867,108.0496)"><path
         d="m 0,0 102.947,-6.018 0.473,0 0.405,0.135 0.338,0.204 0.271,0.473 0.067,0.812 -0.135,0.743 -0.203,0.675 -0.677,1.216 -0.473,0.407 -0.539,0.404 -0.474,0.204 -0.743,0.204 -34.473,4.122 -3.245,-3.717 -0.27,-0.271 -0.338,-0.271 -0.406,-0.202 -0.269,-0.203 -0.407,-0.204 -0.405,-0.201 -0.609,-0.272 -0.743,-0.066 -0.811,-0.069 -0.54,0 -0.812,0.069 -0.812,0.135 -0.946,0.203 -0.473,0.066 -0.472,0.135 -1.69,1.015 -3.313,5.814 -14.397,1.69 -1.015,0.337 -0.675,0.54 -0.474,0.542 -5.812,17.237 -0.069,0.136 -0.135,0.065 -0.135,0.069 -0.203,0.066 -0.201,-0.135 -2.232,-0.742 -0.135,-0.135 -0.136,-0.271 0,-0.202 -0.067,-0.136 3.447,-10.274 0.068,-0.27 0,-0.137 L 27.984,13.721 27.85,13.587 27.646,13.449 27.511,13.383 0,5.812 0,0 Z"
         style="fill:#87d8f7;fill-opacity:1;fill-rule:evenodd;stroke:none"
         id="path4341"
         inkscape:connector-curvature="0" /></g><g
       id="g4343"
       transform="translate(366.7238,244.8607)"><path
         d="m 0,0 27.107,11.016 0.269,0.136 0.27,0.273 0.135,0.334 0,0.273 -0.066,0.337 -1.082,2.636 -25.822,-0.136 0,-0.474 -0.134,0.07 -0.271,22.578 -7.705,-0.07 -1.421,-3.716 -3.04,-1.15 L 0,0 Z"
         style="fill:#87d8f7;fill-opacity:1;fill-rule:evenodd;stroke:none"
         id="path4345"
         inkscape:connector-curvature="0" /></g><g
       id="g4347"
       transform="translate(395.5869,179.2946)"><path
         d="m 0,0 3.312,1.149 13.316,-38.598 -2.906,-1.081 -0.271,0 -0.27,0.27 -0.068,0 -6.083,17.641 -0.068,0.407 -0.134,0.407 0,0.269 -0.204,0.607 -0.203,0.34 L 0,0 Z"
         style="fill:#87d8f7;fill-opacity:1;fill-rule:evenodd;stroke:none"
         id="path4349"
         inkscape:connector-curvature="0" /></g><g
       id="g4351"
       transform="translate(529.356,323.4729)"><path
         d="m 0,0 -37.177,-14.737 -0.338,-0.203 -0.269,-0.201 -0.136,-0.272 -0.134,-0.405 0,-0.405 0.066,-0.406 0.204,-0.81 0.269,-0.947 0.135,-0.608 0.407,-1.15 0.201,-1.013 0.204,-0.946 0.27,-0.947 0.338,-0.812 0.543,-1.418 0.47,-1.218 0.339,-0.675 0.337,-0.135 0.879,0.27 0.881,0.338 0.674,0.202 0.677,0.338 0.742,0.406 0.879,0.609 0.946,0.675 0.744,0.677 2.705,2.364 1.891,1.758 1.69,1.487 1.962,1.893 1.553,1.42 0.273,0.338 0.607,0.405 0.675,0.608 0.473,0.339 0.542,0.404 0.742,0.475 1.014,0.743 0.88,0.541 1.283,0.744 1.151,0.608 3.041,1.69 1.758,1.014 2.569,1.352 3.175,1.757 0.948,0.541 0.338,0.27 0.135,0.338 0.066,0.271 0,0.608 -0.135,0.406 -0.2,0.405 L 0.744,-0.473 0.473,-0.338 0,0 Z"
         style="fill:#87d8f7;fill-opacity:1;fill-rule:evenodd;stroke:none"
         id="path4353"
         inkscape:connector-curvature="0" /></g><g
       id="g4355"
       transform="translate(334.1433,389.851)"><path
         d="m 0,0 -57.591,35.014 -0.27,0 -0.134,-0.135 -0.069,-0.135 0,-0.203 0.069,-0.473 0.337,-2.299 0.067,-0.202 0.135,-0.203 0.271,-0.27 0.135,-0.203 0.338,-0.271 30.08,-21.224 0.27,-0.271 0.406,-0.27 0.27,-0.203 0.338,-0.203 0.338,-0.135 0.27,-0.203 0.271,-0.135 0.338,-0.067 0.473,-0.203 0.541,-0.135 0.27,-0.136 0.947,-0.27 0.27,-0.068 0.405,-0.135 0.338,-0.067 0.338,-0.136 0.406,-0.067 0.608,-0.203 0.541,-0.203 0.676,-0.135 0.608,-0.135 0.744,-0.203 0.54,-0.067 0.879,-0.271 0.811,-0.135 0.338,-0.068 0.203,-0.067 0.27,-0.068 0.609,-0.203 0.27,-0.202 0.338,-0.338 0.271,-0.338 0.27,-0.406 0.203,-0.473 0.338,-0.541 1.149,-1.96 1.217,-2.028 0.743,-1.419 0.473,-0.879 0.406,-0.473 0.27,-0.338 0.406,-0.406 0.473,-0.405 0.946,-0.676 1.149,-0.811 1.352,-0.947 0.609,-0.405 0.405,-0.338 0.338,-0.203 0.406,-0.135 0.27,0 0.068,0.135 0.135,0.405 0.203,0.541 0.135,0.879 0.203,0.879 0.135,1.081 0.067,1.014 0.137,1.42 0.066,1.216 0.068,0.609 0,0.473 L 0,0 Z"
         style="fill:#87d8f7;fill-opacity:1;fill-rule:evenodd;stroke:none"
         id="path4357"
         inkscape:connector-curvature="0" /></g><g
       id="g4359"
       transform="translate(184.0157,430.2725)"><path
         d="m 0,0 -61.376,-12.573 0.406,-2.095 0.202,0.068 0.068,-0.136 4.461,0.879 0.271,0.068 0.27,0 0.27,-0.068 0.271,-0.27 0.135,-0.271 1.825,-4.934 0.27,-0.541 0.406,-0.405 0.203,-0.068 0.27,-0.068 0.27,-0.067 0.136,0 51.845,15.006 0.27,0.067 0.338,0.203 0.473,0.473 0.135,0.271 0.068,0.27 L 1.69,-1.149 1.621,-0.744 1.419,-0.541 1.284,-0.27 1.082,-0.135 0.811,-0.068 0.54,0 0,0 Z"
         style="fill:#87d8f7;fill-opacity:1;fill-rule:evenodd;stroke:none"
         id="path4361"
         inkscape:connector-curvature="0" /></g><g
       id="g4363"
       transform="translate(124.3291,502.396)"><path
         d="m 0,0 0.069,-0.203 0.066,-0.067 0.135,-0.068 0.069,-0.068 0.134,0 0.135,0.068 0.136,0 0.135,0.068 0.068,0.135 0.067,0 0,0.203 -1.825,19.129 -0.202,0.338 -0.136,0.338 -0.135,0.067 -0.135,0.136 -0.067,0 -1.555,-0.271 -0.135,0 -0.135,-0.067 -0.204,0.135 -0.134,0 -0.135,-0.068 -0.135,-0.067 -0.203,-0.136 -0.271,-0.27 -0.879,-0.608 -0.067,-0.068 0,-0.067 -0.069,-0.068 0,-0.338 -0.135,-0.406 -0.338,-1.689 0,-0.068 -0.066,-0.135 -0.069,-0.068 -0.066,0 -0.272,-0.067 -0.608,-0.068 -0.675,0 -0.948,-0.068 -0.877,-0.135 -1.082,-0.135 -1.081,-0.27 -0.947,-0.406 -1.082,-0.676 -0.946,-0.743 -3.649,-2.839 -0.204,-0.136 -0.271,-0.135 -0.338,-0.203 -0.404,-0.135 -1.825,-0.608 -0.745,-0.203 -0.675,-0.27 -0.743,-0.271 -0.947,-0.27 -2.029,-0.608 -0.404,-0.136 -0.271,-0.135 -0.202,-0.27 -0.135,-0.406 0,-0.473 0.066,-0.676 0.135,-0.743 0.272,-0.541 0.27,-0.608 0.338,-0.541 0.271,-0.609 0.404,-0.54 0.473,-0.406 1.624,-1.081 0.674,-0.474 0.542,-0.338 0.337,-0.202 0.473,-0.136 0.542,-0.067 1.621,0 1.015,0.067 0.744,0.068 1.824,0 0.608,-0.135 0.744,-0.068 0.743,-0.203 0.676,0.068 1.421,0.068 0.743,0 0.474,0.54 0.81,0.744 0.675,0.879 0.542,0.676 0.337,0.676 0.272,1.081 0.201,3.245 0,0.067 0.069,0.135 0,0.068 0.134,0.27 0.204,0.338 0.337,0.406 0.676,0.879 0.473,0.608 0.339,0.473 0.405,0.811 0.27,0.609 0.135,0.405 0.272,0.541 0,0.338 -0.272,0.676 -0.202,0.541 -0.068,0.202 0.203,0.541 0,0.271 -0.068,0.54 0,0.474 0.068,0.608 0.135,0.676 0.135,0.541 0,0.27 0.069,0.135 0.066,0.203 0.338,0.338 0.744,0.608 1.352,0.203 L 0,0 Z"
         style="fill:#87d8f7;fill-opacity:1;fill-rule:evenodd;stroke:none"
         id="path4365"
         inkscape:connector-curvature="0" /></g><g
       id="g4367"
       transform="translate(582.9586,321.6478)"><path
         d="m 0,0 -1.62,12.235 -0.203,0.27 -0.205,0.203 -0.269,0.135 -0.204,0.068 -0.406,0.067 -1.149,0.135 -3.446,0.136 -2.502,0.067 -2.702,0.135 -2.503,0.136 -2.839,0.202 -7.03,0.541 -2.229,0.27 -1.96,0.136 -3.38,0.473 -2.57,0.405 -2.363,0.406 -1.017,0.203 -0.473,-0.068 -0.337,-0.27 -0.202,-0.338 -0.069,-0.473 0,-0.406 0.408,-0.541 0.743,-0.946 0.404,-0.406 0.743,-0.878 1.15,-0.947 1.351,-0.878 1.96,-1.014 2.232,-0.947 3.246,-1.284 3.176,-1.081 1.824,-0.541 1.487,-0.473 3.448,-1.082 4.731,-1.419 4.866,-1.352 3.245,-0.811 2.232,-0.541 1.35,-0.271 0.34,-0.067 0.339,0.135 0.27,0.203 0.065,0.203 L 0,0 Z"
         style="fill:#87d8f7;fill-opacity:1;fill-rule:evenodd;stroke:none"
         id="path4369"
         inkscape:connector-curvature="0" /></g><g
       id="g4371"
       transform="translate(186.2458,483.2667)"><path
         d="m 0,0 0.135,0 0.069,0.068 0.202,0 0.067,0.067 0.068,0 0,0.068 0.067,0 0.069,0.067 0.067,0 0,0.068 0.068,0.068 0.067,0 0,0.067 0.068,0.068 0.067,0.067 0,0.068 0.068,0.068 0,0.067 0.068,0.068 0,0.676 -0.068,0 0,0.135 -0.068,0.068 0,0.067 -0.067,0.068 0,0.067 -0.068,0 0,0.068 -0.067,0.067 -0.068,0 0,0.068 -0.067,0.068 -0.271,0 L 0.204,2.298 -0.134,2.366 -0.404,2.501 -0.676,2.569 -1.082,2.704 -1.555,2.839 -1.893,2.974 -2.298,3.177 -2.636,3.312 -3.311,3.65 -3.514,3.785 -4.056,3.92 -4.326,3.853 -4.799,3.718 -5.137,3.583 -5.339,3.38 -5.609,2.907 -5.678,2.771 -5.746,2.501 -5.746,1.893 -5.812,1.352 -5.947,0.879 -6.219,0.203 -6.42,-0.27 l -0.407,-0.676 -0.337,-0.406 -0.473,-0.405 -0.542,-0.474 -0.879,-0.54 -0.676,-0.203 -0.878,-0.203 -0.474,-0.068 -0.338,0.068 0.068,-1.284 0.677,-0.068 0.675,0.068 0.812,0.067 0.878,0.136 1.487,0.54 0.946,0.406 0.609,0.405 0.879,0.609 0.609,0.473 0.743,0.743 0.27,0.203 0.135,0.203 0.069,0.203 0.135,0.203 0.338,0.338 0.27,0.135 0.338,0.067 0.202,0.068 0.338,-0.068 0.338,0 L -0.203,0.135 0,0 Z"
         style="fill:#87d8f7;fill-opacity:1;fill-rule:evenodd;stroke:none"
         id="path4373"
         inkscape:connector-curvature="0" /></g><g
       id="g4375"
       transform="translate(174.0118,480.0223)"><path
         d="M 0,0 -3.853,0.27 -4.057,0.203 -4.258,0.135 -4.461,0.068 -4.665,-0.068 -4.799,-0.27 -5.002,-0.473 -5.07,-0.676 l 0,-0.203 -0.068,-0.338 -0.337,-9.125 0.067,-0.203 0.203,-0.135 0.54,-0.541 0.407,-0.27 0.473,-0.27 0.81,-0.271 0.677,0 0.27,0.068 0.269,0.135 0.137,0.135 0,0.203 0.067,0.203 0,0.135 -0.067,0.405 -0.88,8.72 -0.134,0.27 0,0.136 0.067,0.203 0.271,0.27 0.811,0 0.473,-0.068 1.082,0 L 0,0 Z"
         style="fill:#87d8f7;fill-opacity:1;fill-rule:evenodd;stroke:none"
         id="path4377"
         inkscape:connector-curvature="0" /></g><g
       id="g4379"
       transform="translate(507.523,110.2796)"><path
         d="m 0,0 33.258,2.298 0.675,-0.069 0.608,-0.136 0.542,-0.473 0.404,-0.471 0.406,-0.676 0.271,-0.813 -0.068,-0.877 -0.338,-0.946 -0.474,-0.541 -0.473,-0.608 -0.81,-0.138 -0.947,-0.2 -33.798,-2.233 -0.811,0.34 -0.539,0.473 -0.474,0.812 -0.339,0.743 0.067,0.946 0.339,0.947 0.407,0.54 0.539,0.609 0.677,0.203 L 0,0 Z"
         style="fill:#87d8f7;fill-opacity:1;fill-rule:evenodd;stroke:none"
         id="path4381"
         inkscape:connector-curvature="0" /></g><g
       id="g4383"
       transform="translate(377.7421,242.0904)"><path
         d="M 0,0 -3.515,-1.15 2.569,-18.795 5.948,-17.372 0,0 Z"
         style="fill:#87d8f7;fill-opacity:1;fill-rule:evenodd;stroke:none"
         id="path4385"
         inkscape:connector-curvature="0" /></g><g
       id="g4387"
       transform="translate(380.6487,222.4875)"><path
         d="m 0,0 14.668,-42.517 3.38,1.147 L 3.38,1.419 0,0 Z"
         style="fill:#87d8f7;fill-opacity:1;fill-rule:evenodd;stroke:none"
         id="path4389"
         inkscape:connector-curvature="0" /></g><g
       id="g4391"
       transform="translate(554.2309,239.3179)"><path
         d="m 0,0 -15.412,-7.976 -0.135,-0.07 -0.201,-0.065 -0.137,-0.07 -0.541,0 -0.269,0.07 -0.271,0.135 -0.406,0.268 -0.338,0.34 -1.621,2.501 -0.339,0.539 -1.013,-0.674 -0.407,0.608 -0.339,0.674 0,0.543 0.273,0.473 5.88,2.972 1.689,0.814 0.812,0.337 0.677,0.066 1.35,0.205 2.029,0.203 1.284,0.2 1.081,0.273 0.811,0.27 0.069,0.066 5.339,2.298 15.749,6.897 3.178,1.352 1.825,0.81 1.351,0.541 1.557,0.338 1.283,0.201 0.675,0.137 2.569,0.271 1.962,0 1.755,-0.07 1.96,-0.065 2.637,0.065 2.232,0.07 17.035,1.62 0.473,0 0.268,-0.066 0.27,-0.338 0.811,-2.771 0,-0.34 -0.132,-0.133 0,-0.07 -0.07,0 -0.067,-0.065 -0.069,0 -0.135,-0.07 -7.841,-0.809 -0.338,-0.068 -0.337,-0.068 -0.271,-0.067 -0.338,-0.07 -0.27,-0.135 -0.339,-0.135 -0.27,-0.133 L 46.709,11.694 46.44,11.489 45.897,11.151 45.424,10.679 45.153,10.477 44.951,10.207 44.815,9.934 44.477,9.531 44.277,9.191 44.006,8.853 43.868,8.449 43.667,8.109 43.599,7.841 43.329,7.435 43.125,7.368 42.924,7.299 42.72,7.233 l -0.203,0.066 -0.2,0.069 -0.139,0.133 -0.335,0.408 -0.272,0.335 -0.337,0.338 -0.407,0.34 -0.339,0.269 -0.404,0.34 -0.404,0.268 -0.813,0.408 -0.473,0.2 -0.404,0.205 -0.473,0.136 -0.473,0.132 -0.474,0.136 -0.406,0.07 L 26.498,10.004 25.754,9.869 24.74,9.598 23.658,9.191 23.05,8.853 5.609,0.876 0.54,-1.014 0,0 Z"
         style="fill:#87d8f7;fill-opacity:1;fill-rule:evenodd;stroke:none"
         id="path4393"
         inkscape:connector-curvature="0" /></g><g
       id="g4395"
       transform="translate(508.1985,219.7151)"><path
         d="m 0,0 -8.923,11.76 -0.27,0.272 -0.338,0 -0.135,-0.135 -14.465,-11.762 -0.271,-0.474 -0.067,-0.202 0.067,-0.406 0.204,-0.405 0.137,-0.069 0.335,-0.134 0.273,-0.067 0.268,0 16.495,1.014 2.229,0 0.473,-0.069 0.473,0 0.541,-0.067 0.608,0 0.408,-0.068 0.338,-0.067 0.336,0 0.408,-0.068 0.608,0 0.268,0.27 0,0.069 0.07,0.067 0,0.337 L 0,-0.135 0,0 Z"
         style="fill:#87d8f7;fill-opacity:1;fill-rule:evenodd;stroke:none"
         id="path4397"
         inkscape:connector-curvature="0" /></g><g
       id="g4399"
       transform="translate(197.4665,425.4058)"><path
         d="m 0,0 1.622,11.491 0.542,0.879 1.013,0.203 1.081,-0.271 1.555,-0.203 1.624,-0.135 1.216,-0.135 0.947,-0.068 1.621,0 0.947,0.068 0.811,0.203 1.081,0.608 0.609,0.541 0.54,0.608 0.27,0.609 10.41,-2.163 9.329,-1.623 5.813,-0.743 4.731,-0.811 4.665,-0.811 2.364,-0.271 2.841,-0.608 0.811,-0.271 0.27,-0.608 0.269,-0.676 0.406,-0.473 0.542,-0.406 0.539,-0.27 0.745,-0.27 0.879,-0.068 0.473,0.135 0.404,0.271 0.34,0.54 0.539,0.406 0.88,0 1.283,-0.135 1.284,-0.338 1.488,-0.135 1.554,-0.271 1.421,-0.135 1.824,-0.338 0.879,-0.203 1.419,-0.676 1.15,-0.608 0,-1.622 -0.203,-2.772 -0.068,0 -0.067,-0.405 -0.068,-1.623 -2.299,0.474 -4.865,0.27 -2.096,0.135 -1.961,0.135 -2.838,0.203 -2.771,0.203 -2.029,0.135 -5.07,0.338 -4.799,0.338 -3.38,0.203 -5.88,0.338 -3.313,0.27 L 29.809,-0.27 26.904,0 24.335,0.203 19.805,0.608 13.181,0.473 7.707,0.406 4.936,0.608 2.637,0.608 1.556,0.406 0.677,0.203 0,0 Z"
         style="fill:#87d8f7;fill-opacity:1;fill-rule:evenodd;stroke:none"
         id="path4401"
         inkscape:connector-curvature="0" /></g><g
       id="g4403"
       transform="translate(470.2788,226.3392)"><path
         d="m 0,0 0,5.474 2.366,0 0,3.313 -2.366,0 -3.919,0.067 0.066,-2.434 0.677,0.069 0.134,-9.531 0.948,0 0,-1.081 0.877,0 0.067,-0.609 8.112,2.163 0.202,16.899 -3.312,0.067 0.067,1.893 -1.621,0 0,-3.245 3.921,0 L 6.15,1.081 2.366,1.081 2.366,0 0,0 Z"
         style="fill:#87d8f7;fill-opacity:1;fill-rule:evenodd;stroke:none"
         id="path4405"
         inkscape:connector-curvature="0" /></g><g
       id="g4407"
       transform="translate(478.254,240.669)"><path
         d="m 0,0 0,-1.285 -0.203,-15.545 1.825,0.404 0.811,0.54 7.368,5.882 1.625,1.285 1.553,1.69 2.096,2.907 -1.421,1.012 -1.419,0.881 -0.946,0.47 -1.015,0.408 -0.811,0.338 -0.878,0.336 -1.756,0.543 -3.853,0 L 0,0 Z"
         style="fill:#87d8f7;fill-opacity:1;fill-rule:evenodd;stroke:none"
         id="path4409"
         inkscape:connector-curvature="0" /></g><g
       id="g4411"
       transform="translate(348.6766,106.0891)"><path
         d="m 0,0 5.947,0.676 6.085,0.743 9.193,0.404 2.636,0.947 0.675,3.516 -36.635,-5.474 -9.6,-1.421 -5.07,-0.742 -14.058,-2.099 -0.811,-0.066 -0.541,-0.068 -0.676,-0.136 -0.338,-0.133 -0.204,-0.204 0.069,-0.609 0.269,-0.335 0.339,-0.205 1.013,0.067 0.946,0.138 7.841,0.944 2.029,0.273 5.881,0.674 4.461,0.543 1.825,0.2 6.354,0.81 5.88,0.679 L 0,0 Z"
         style="fill:#87d8f7;fill-opacity:1;fill-rule:evenodd;stroke:none"
         id="path4413"
         inkscape:connector-curvature="0" /></g><g
       id="g4415"
       transform="translate(328.1946,173.6155)"><path
         d="m 0,0 1.217,-0.27 1.081,-0.068 1.487,-0.136 1.624,-0.133 1.419,0 1.486,-0.07 1.421,0.136 1.283,0.271 0.946,0.539 0.744,0.814 0.676,1.146 -0.068,1.151 -0.675,1.082 -1.352,0.877 -1.758,1.42 -1.42,1.352 -2.094,2.501 -0.879,1.286 -0.811,0.81 -0.677,0.541 -1.013,0.405 -1.015,0 L 0.677,13.315 -0.54,12.505 -1.419,11.288 -2.163,10.139 -2.839,9.125 -3.38,7.572 -3.853,6.355 -4.326,4.799 -4.866,4.393 -5.609,4.056 -6.691,4.393 -8.11,5.07 l -1.556,0.742 -1.216,0.609 -1.082,0.608 -1.216,0.543 -1.42,-0.07 -0.878,-0.743 -0.473,-0.811 -0.339,-1.419 0.204,-1.014 0.742,-0.946 0.812,-0.474 1.283,-0.136 1.42,0.407 1.014,0.27 1.488,0.269 1.418,0 1.082,0.07 1.353,-0.136 0.945,-0.136 0.88,-0.337 0.946,-0.541 0.744,-0.473 0.608,-0.473 0.473,-0.61 L 0,0 Z"
         style="fill:#87d8f7;fill-opacity:1;fill-rule:evenodd;stroke:none"
         id="path4417"
         inkscape:connector-curvature="0" /></g><g
       id="g4423"
       transform="translate(111.0809,463.8673)"><path
         d="m 0,0 -1.013,0.135 -1.15,-0.067 -1.014,-0.271 -0.742,-0.473 -0.407,-0.473 -0.338,-0.608 -0.203,-0.812 -0.067,-0.676 0.202,-1.081 0.271,-0.879 0.542,-0.879 0.539,-0.743 0.473,-0.676 0.744,-0.473 0.676,-0.271 0.879,-0.202 0.677,-0.068 0.608,-0.068 0.742,-0.067 1.961,0.541 0.203,0.743 0.202,0.879 0.068,0.608 L 3.785,-5.272 3.583,-4.394 3.38,-3.447 2.907,-2.704 2.367,-2.095 1.69,-1.082 1.014,-0.541 0.473,-0.27 0,0 Z"
         style="fill:#87d8f7;fill-opacity:1;fill-rule:evenodd;stroke:none"
         id="path4425"
         inkscape:connector-curvature="0" /></g><g
       id="g4427"
       transform="translate(256.6801,98.9247)"><path
         d="m 0,0 4.664,0.81 5.813,0.744 5.34,0.473 5.137,-0.271 5.205,-0.81 1.082,1.011 L 26.767,3.38 22.103,4.933 17.777,5.406 14.465,5.272 11.086,4.863 3.177,3.174 1.013,2.566 -2.367,1.756 -5.881,1.419 -6.962,1.62 l -1.961,1.219 -0.812,0.335 -1.215,2.299 -3.921,11.426 -0.067,0.133 -0.136,0.34 -0.27,0.403 -0.27,0.273 -0.272,0.134 -0.404,0 -0.406,-0.068 -0.473,-0.269 -0.135,-0.27 -0.135,-0.203 -0.068,-0.34 0.068,-0.404 0.202,-0.339 0.743,-0.813 0.608,-0.741 0.272,-0.743 0.473,-1.487 1.081,-3.989 1.352,-5.407 1.825,-2.029 1.825,-1.15 2.096,-0.471 2.771,0.067 L 0,0 Z"
         style="fill:#87d8f7;fill-opacity:1;fill-rule:evenodd;stroke:none"
         id="path4429"
         inkscape:connector-curvature="0" /></g><g
       id="g4431"
       transform="translate(380.3781,114.7409)"><path
         d="m 0,0 -1.758,-0.134 0.068,-6.423 1.759,0 L 0,0 Z"
         style="fill:#87d8f7;fill-opacity:1;fill-rule:evenodd;stroke:none"
         id="path4433"
         inkscape:connector-curvature="0" /></g><g
       id="g4435"
       transform="translate(665.4244,248.0357)"><path
         d="M 0,0 1.081,0.813 1.69,2.097 1.757,2.907 1.284,4.328 0.811,5.07 0.204,5.678 l -0.812,0.407 -1.15,0.406 -0.945,-0.07 -0.744,0.07 -28.052,-5.069 -0.405,0 -1.285,-0.88 -2.027,-0.542 -2.367,0.07 -1.216,1.418 -0.676,1.352 -1.082,1.69 -2.703,1.621 -2.502,0.069 -0.877,-0.069 -0.88,-0.268 -0.541,-0.88 0,-1.217 -1.497,-0.534 1.498,0.533 5.001,-11.964 0.272,-0.608 0.335,-0.473 0.272,-0.27 0.405,-0.135 39.746,9.058 L 0.068,-3.04 -2.027,-0.608 0,0 Z"
         style="fill:#87d8f7;fill-opacity:1;fill-rule:evenodd;stroke:none"
         id="path4437"
         inkscape:connector-curvature="0" /></g><g
       id="g4443"
       transform="translate(532.7358,222.0133)"><path
         d="m 0,0 -8.449,-4.867 0,-4.733 L 1.622,-9.666 0,0 Z"
         style="fill:#87d8f7;fill-opacity:1;fill-rule:evenodd;stroke:none"
         id="path4445"
         inkscape:connector-curvature="0" /></g><g
       id="g4451"
       transform="translate(564.3019,190.5813)"><path
         d="m 0,0 0,14.466 -12.303,0 L -11.898,-4.53 0,0 Z"
         style="fill:#87d8f7;fill-opacity:1;fill-rule:evenodd;stroke:none"
         id="path4453"
         inkscape:connector-curvature="0" /></g><g
       id="g6031"
       transform="translate(465.0255,240.372)"><path
         d="m 0,0 0.011,-0.049 0.018,-0.038 -0.006,-0.001 -0.043,0.019 -0.053,0.045 -0.05,0.029 -0.011,-0.006 -0.004,-0.016 0.037,-0.032 0.04,-0.041 0,-0.002 -0.023,0.017 -0.035,0.021 -0.041,0.02 -0.025,-0.011 0.016,-0.025 0.02,-0.013 0.058,-0.043 -0.032,0.011 -0.015,0.005 -0.04,0.022 -0.014,-0.011 0.006,-0.02 0.049,-0.033 0.062,-0.031 -0.002,-0.004 -0.007,0.001 -0.067,0.009 -0.03,-0.003 -0.002,-0.012 0.029,-0.02 0.086,-0.018 0.062,-0.027 0.047,-0.007 0.046,0.027 0.018,0.025 0.012,0.043 L 0.084,-0.088 0.041,-0.012 0.033,0.001 0.015,0.014 0,0 Z m 0.038,-0.093 -0.002,0.015 -0.022,0.04 -0.003,0.037 0.005,0.006 0.013,-0.013 0.019,-0.04 0.042,-0.071 0.015,-0.049 -0.009,-0.038 -0.019,-0.03 -0.047,-0.018 -0.033,0.005 -0.061,0.028 -0.086,0.017 -0.022,0.01 -0.002,0.008 0.02,-0.001 0.058,-0.008 0.03,0.007 -0.003,0.013 -0.046,0.022 -0.045,0.028 -0.023,0.018 0,0.005 0.009,0.004 0.036,-0.022 0.036,-0.013 0.034,-0.013 0.004,0.008 -0.014,0.014 -0.04,0.03 -0.047,0.031 -0.011,0.014 0.009,0.006 0.044,-0.02 0.03,-0.02 0.038,-0.025 0.008,0.002 0,0.012 -0.028,0.029 -0.028,0.031 -0.026,0.022 0.006,0.007 0.011,-0.003 0.024,-0.017 0.062,-0.051 0.011,-0.007 0.038,-0.015 0.015,0.005 z"
         style="fill:#44ba3b;fill-opacity:1;fill-rule:nonzero;stroke:none"
         id="path6033"
         inkscape:connector-curvature="0" /></g><g
       id="g6553"><g
         id="g6555"
         clip-path="url(#clipPath6557)"><text
           transform="matrix(1,0,0,-1,787.0453,126.5963)"
           style="font-variant:normal;font-weight:500;font-stretch:condensed;font-size:7.5085001px;font-family:'YROJSF +LinotypeUnivers-520CnMedium';-inkscape-font-specification:LinotypeUnivers-520CnMedium;writing-mode:lr-tb;fill:#ffffff;fill-opacity:1;fill-rule:nonzero;stroke:none"
           id="text6561"><tspan
             x="0 1.982244"
             y="0"
             sodipodi:role="line"
             id="tspan6563">IH</tspan></text>
<g
           id="g6565"
           transform="translate(789.623,138.1294)"><path
             d="m 0,0 c 1.498,0 2.846,0.643 3.783,1.67 0.831,0.91 3.187,3.455 3.187,3.455 0,0 -2.34,2.503 -3.148,3.409 C 2.885,9.586 1.52,10.247 0,10.247 -2.828,10.247 -5.125,7.955 -5.125,5.125 -5.125,2.291 -2.828,0 0,0"
             style="fill:#3050aa;fill-opacity:1;fill-rule:nonzero;stroke:none"
             id="path6567"
             inkscape:connector-curvature="0" /></g><text
           transform="matrix(1,0,0,-1,786.7637,140.6785)"
           style="font-variant:normal;font-weight:500;font-stretch:condensed;font-size:7.5085001px;font-family:'YROJSF +LinotypeUnivers-520CnMedium';-inkscape-font-specification:LinotypeUnivers-520CnMedium;writing-mode:lr-tb;fill:#ffffff;fill-opacity:1;fill-rule:nonzero;stroke:none"
           id="text6569"><tspan
             x="0 1.982244"
             y="0"
             sodipodi:role="line"
             id="tspan6571">IB</tspan></text>
</g></g><g
       id="g8423"
       transform="translate(338.7105,294.4386)"><path
         d="M 0,0 0.117,-0.012 0.128,0.103 0.012,0.117 0,0 Z"
         style="fill:#07635b;fill-opacity:1;fill-rule:nonzero;stroke:none"
         id="path8425"
         inkscape:connector-curvature="0" /></g><g
       id="g8427"
       transform="translate(338.2713,294.6312)"><path
         d="M 0,0 0.454,-0.175 0.513,-0.142 0.476,-0.071 0.058,0.152 0,0 Z"
         style="fill:#ffffff;fill-opacity:1;fill-rule:nonzero;stroke:none"
         id="path8429"
         inkscape:connector-curvature="0" /></g><g
       id="g8431"
       transform="translate(338.1669,294.7545)"><path
         d="M 0,0 0.09,-0.182 0.273,-0.093 0.183,0.09 0,0 Z"
         style="fill:#231f20;fill-opacity:1;fill-rule:nonzero;stroke:none"
         id="path8433"
         inkscape:connector-curvature="0" /></g><g
       id="g8435"
       transform="translate(338.2119,294.6384)"><path
         d="M 0,0 -0.048,-0.727 0.2,-0.71 0.156,0.034 0.076,0.096 0,0 Z"
         style="fill:#ffffff;fill-opacity:1;fill-rule:nonzero;stroke:none"
         id="path8437"
         inkscape:connector-curvature="0" /></g></g></svg>